<svg xmlns="http://www.w3.org/2000/svg" width="339" height="303" viewBox="0 0 339 303" fill="none">
  <defs>
    <filter id="softGlow" x="-40%" y="-15%" width="180%" height="130%" color-interpolation-filters="sRGB">
      <feGaussianBlur stdDeviation="2.2" result="blur"/>
      <feMerge><feMergeNode in="blur"/><feMergeNode in="SourceGraphic"/></feMerge>
    </filter>
    <linearGradient id="g0" x1="37" y1="113" x2="65" y2="113" gradientUnits="userSpaceOnUse">
      <stop offset="0" stop-color="#b063e3"/>
      <stop offset="0.55" stop-color="#bf6cf7"/>
      <stop offset="1" stop-color="#c971ff"/>
    </linearGradient>
    <linearGradient id="g1" x1="71" y1="61" x2="100" y2="61" gradientUnits="userSpaceOnUse">
      <stop offset="0" stop-color="#a677de"/>
      <stop offset="0.55" stop-color="#b481f1"/>
      <stop offset="1" stop-color="#bd87fd"/>
    </linearGradient>
    <linearGradient id="g2" x1="106" y1="23" x2="134" y2="23" gradientUnits="userSpaceOnUse">
      <stop offset="0" stop-color="#9b8bd8"/>
      <stop offset="0.55" stop-color="#a997eb"/>
      <stop offset="1" stop-color="#b19ff7"/>
    </linearGradient>
    <linearGradient id="g3" x1="140" y1="44" x2="169" y2="44" gradientUnits="userSpaceOnUse">
      <stop offset="0" stop-color="#919dd3"/>
      <stop offset="0.55" stop-color="#9eabe5"/>
      <stop offset="1" stop-color="#a6b4f0"/>
    </linearGradient>
    <linearGradient id="g4" x1="175" y1="79" x2="204" y2="79" gradientUnits="userSpaceOnUse">
      <stop offset="0" stop-color="#86b1cb"/>
      <stop offset="0.55" stop-color="#92c0dd"/>
      <stop offset="1" stop-color="#99cae8"/>
    </linearGradient>
    <linearGradient id="g5" x1="209" y1="100" x2="239" y2="100" gradientUnits="userSpaceOnUse">
      <stop offset="0" stop-color="#7dc4c7"/>
      <stop offset="0.55" stop-color="#88d5d8"/>
      <stop offset="1" stop-color="#8fe0e3"/>
    </linearGradient>
    <linearGradient id="g6" x1="244" y1="79" x2="273" y2="79" gradientUnits="userSpaceOnUse">
      <stop offset="0" stop-color="#73d8c0"/>
      <stop offset="0.55" stop-color="#7debd1"/>
      <stop offset="1" stop-color="#83f7db"/>
    </linearGradient>
    <linearGradient id="g7" x1="278" y1="117" x2="307" y2="117" gradientUnits="userSpaceOnUse">
      <stop offset="0" stop-color="#6de5be"/>
      <stop offset="0.55" stop-color="#76f9ce"/>
      <stop offset="1" stop-color="#7cffd8"/>
    </linearGradient>
  </defs>
  <g filter="url(#softGlow)">
    <rect x="37" y="113" width="28" height="67" rx="14.0" fill="url(#g0)"/>
    <rect x="71" y="61" width="29" height="176" rx="14.5" fill="url(#g1)"/>
    <rect x="106" y="23" width="28" height="252" rx="14.0" fill="url(#g2)"/>
    <rect x="140" y="44" width="29" height="210" rx="14.5" fill="url(#g3)"/>
    <rect x="175" y="79" width="29" height="141" rx="14.5" fill="url(#g4)"/>
    <rect x="209" y="100" width="30" height="98" rx="15.0" fill="url(#g5)"/>
    <rect x="244" y="79" width="29" height="141" rx="14.5" fill="url(#g6)"/>
    <rect x="278" y="117" width="29" height="63" rx="14.5" fill="url(#g7)"/>
  </g>
</svg>