<?xml version="1.0" encoding="UTF-8"?>
<svg xmlns="http://www.w3.org/2000/svg" width="584" height="580" viewBox="0 0 584 580" role="img" aria-label="Weill Cornell Medical College Cornell University logo">
  <path d="M 274 510 L 272 519 L 272 536 L 274 541 L 277 544 L 284 546 L 291 546 L 298 543 L 301 536 L 301 520 L 302 519 L 301 511 L 299 510 L 294 511 L 294 531 L 293 534 L 289 539 L 284 539 L 280 535 L 280 510 Z
    M 334 507 L 330 509 L 332 515 L 332 524 L 331 525 L 327 522 L 319 510 L 311 510 L 310 511 L 312 537 L 315 545 L 321 544 L 321 539 L 319 534 L 319 526 L 320 525 L 324 528 L 333 542 L 341 542 L 342 541 L 341 524 L 339 519 L 339 509 Z
    M 348 504 L 345 506 L 345 509 L 347 511 L 347 516 L 349 519 L 350 528 L 352 531 L 352 536 L 353 538 L 358 538 L 360 536 L 360 531 L 355 516 L 354 506 L 351 504 Z
    M 235 502 L 227 531 L 227 536 L 228 537 L 233 537 L 236 539 L 246 540 L 248 536 L 246 534 L 243 534 L 236 531 L 237 522 L 242 506 L 240 503 Z
    M 211 494 L 208 499 L 205 510 L 200 520 L 199 526 L 216 533 L 219 531 L 219 527 L 216 525 L 210 524 L 209 523 L 209 518 L 217 500 L 217 496 L 214 494 Z
    M 386 492 L 380 494 L 380 516 L 379 517 L 374 513 L 367 503 L 363 500 L 361 500 L 357 503 L 358 506 L 367 516 L 368 519 L 379 530 L 387 529 L 387 494 Z
    M 185 482 L 182 489 L 177 496 L 177 498 L 175 500 L 170 512 L 184 520 L 189 520 L 190 515 L 182 512 L 180 510 L 180 508 L 183 504 L 186 504 L 192 507 L 195 506 L 194 500 L 190 499 L 187 496 L 189 492 L 194 492 L 196 494 L 201 495 L 204 491 L 199 487 L 196 487 L 189 482 Z
    M 405 480 L 399 485 L 392 488 L 392 492 L 403 511 L 404 515 L 409 519 L 422 512 L 425 509 L 425 507 L 423 505 L 420 505 L 415 509 L 411 509 L 409 507 L 408 503 L 416 498 L 417 495 L 414 492 L 406 496 L 404 496 L 402 494 L 402 491 L 410 486 L 411 482 L 409 480 Z
    M 430 465 L 421 470 L 415 476 L 427 492 L 428 495 L 436 503 L 439 502 L 441 499 L 434 489 L 436 486 L 445 489 L 448 492 L 452 492 L 455 489 L 454 485 L 442 478 L 441 476 L 442 471 L 439 467 L 436 465 Z
    M 426 476 L 429 473 L 433 473 L 435 478 L 433 480 L 429 481 L 426 478 Z
    M 155 460 L 154 463 L 140 480 L 135 488 L 139 491 L 143 490 L 150 480 L 153 478 L 154 479 L 154 484 L 152 489 L 152 501 L 156 504 L 159 504 L 178 479 L 178 477 L 173 473 L 163 486 L 161 487 L 160 486 L 160 479 L 162 475 L 162 464 L 157 460 Z
    M 453 443 L 444 451 L 442 455 L 442 459 L 448 467 L 457 467 L 462 464 L 465 464 L 467 466 L 467 470 L 459 476 L 460 479 L 464 481 L 470 477 L 474 472 L 475 463 L 474 460 L 470 457 L 459 457 L 453 460 L 451 458 L 451 454 L 457 449 L 457 446 Z
    M 134 439 L 132 439 L 110 461 L 110 464 L 113 467 L 117 466 L 123 459 L 126 461 L 127 464 L 122 473 L 122 476 L 126 480 L 129 479 L 134 466 L 136 464 L 138 465 L 142 464 L 147 458 L 147 454 L 144 448 Z
    M 133 449 L 135 449 L 138 452 L 138 456 L 136 458 L 134 458 L 131 455 L 131 451 Z
    M 463 432 L 460 435 L 460 438 L 481 457 L 486 459 L 489 456 L 488 451 L 470 437 L 466 432 Z
    M 110 412 L 102 412 L 95 415 L 88 423 L 87 426 L 87 435 L 93 444 L 99 447 L 105 448 L 116 444 L 122 437 L 124 428 L 120 419 L 115 414 Z
    M 113 421 L 117 428 L 115 433 L 106 440 L 98 439 L 94 434 L 94 428 L 106 419 Z
    M 95 384 L 84 384 L 75 388 L 72 391 L 69 401 L 72 411 L 76 417 L 79 417 L 81 415 L 81 412 L 77 407 L 77 400 L 83 393 L 93 392 L 99 398 L 100 403 L 102 405 L 106 403 L 107 401 L 103 391 Z
    M 496 378 L 494 381 L 494 385 L 499 392 L 500 396 L 499 397 L 486 398 L 484 400 L 483 406 L 478 410 L 477 413 L 468 425 L 467 429 L 471 431 L 478 425 L 497 439 L 501 439 L 503 437 L 504 433 L 501 430 L 496 429 L 493 425 L 487 422 L 483 418 L 483 415 L 486 411 L 485 406 L 486 405 L 495 405 L 496 404 L 498 405 L 508 404 L 516 409 L 519 409 L 521 407 L 522 403 L 511 397 L 504 388 L 501 381 L 498 378 Z
    M 311 374 L 312 379 L 317 380 L 343 381 L 346 379 L 346 375 L 343 373 L 315 372 L 313 371 Z
    M 277 372 L 275 371 L 274 372 L 245 373 L 243 374 L 242 378 L 245 381 L 272 380 L 277 378 Z
    M 311 354 L 313 359 L 345 359 L 346 358 L 346 354 L 344 352 L 323 352 L 313 350 Z
    M 277 351 L 274 350 L 266 352 L 245 352 L 243 353 L 242 357 L 243 359 L 276 359 Z
    M 509 336 L 505 349 L 506 356 L 509 357 L 511 355 L 513 347 L 517 344 L 520 345 L 522 348 L 520 353 L 520 358 L 521 359 L 526 359 L 528 350 L 530 348 L 532 348 L 535 350 L 535 357 L 534 358 L 535 364 L 538 364 L 540 362 L 542 356 L 542 351 L 544 348 L 544 344 L 542 342 L 530 340 L 523 337 L 517 337 L 514 335 Z
    M 311 331 L 311 334 L 314 338 L 317 337 L 325 339 L 344 339 L 346 337 L 346 333 L 343 331 L 338 331 L 337 332 L 326 331 L 325 330 L 312 330 Z
    M 277 330 L 264 330 L 255 332 L 245 331 L 243 332 L 242 336 L 244 339 L 271 338 L 277 336 Z
    M 40 318 L 40 323 L 41 324 L 46 325 L 59 324 L 62 326 L 61 329 L 56 330 L 45 335 L 44 337 L 45 345 L 48 347 L 50 346 L 53 347 L 65 346 L 67 348 L 66 350 L 49 357 L 48 361 L 50 365 L 54 365 L 56 363 L 70 357 L 82 350 L 81 340 L 62 340 L 61 339 L 62 336 L 78 328 L 78 322 L 76 319 L 74 318 L 59 318 L 58 317 L 54 318 L 52 317 L 41 317 Z
    M 311 311 L 313 317 L 331 317 L 341 319 L 346 316 L 346 313 L 343 310 L 317 310 L 313 309 Z
    M 277 310 L 276 309 L 272 310 L 246 310 L 243 312 L 242 316 L 244 318 L 248 319 L 256 317 L 276 317 Z
    M 515 304 L 512 311 L 512 328 L 513 329 L 526 329 L 527 330 L 532 329 L 532 324 L 534 318 L 532 315 L 528 315 L 527 320 L 525 322 L 519 321 L 517 319 L 519 316 L 520 311 L 526 307 L 534 307 L 540 311 L 542 315 L 542 323 L 540 329 L 543 330 L 547 329 L 547 326 L 549 322 L 549 314 L 548 309 L 544 303 L 537 299 L 528 298 L 527 299 L 522 299 Z
    M 39 286 L 40 307 L 51 307 L 52 306 L 67 307 L 75 305 L 75 286 L 74 285 L 69 286 L 69 296 L 67 298 L 62 298 L 59 294 L 60 289 L 59 287 L 55 286 L 53 290 L 54 297 L 52 299 L 47 298 L 45 286 L 44 285 Z
    M 514 270 L 513 277 L 514 278 L 514 291 L 515 292 L 520 291 L 520 280 L 522 278 L 527 278 L 529 280 L 529 285 L 531 290 L 535 289 L 535 279 L 539 277 L 541 277 L 543 280 L 544 289 L 546 291 L 548 291 L 550 289 L 549 270 Z
    M 40 270 L 40 276 L 41 277 L 46 276 L 49 277 L 64 277 L 65 278 L 74 278 L 75 277 L 75 271 L 74 270 L 55 270 L 54 269 L 41 269 Z
    M 79 242 L 74 243 L 72 248 L 72 253 L 69 255 L 43 251 L 41 255 L 42 259 L 76 264 L 79 254 L 79 247 L 80 246 Z
    M 546 242 L 543 240 L 539 240 L 535 242 L 528 242 L 519 245 L 511 245 L 510 246 L 510 254 L 512 258 L 513 267 L 516 267 L 519 264 L 518 260 L 518 253 L 519 252 L 535 249 L 542 249 L 546 246 Z
    M 86 219 L 85 218 L 80 219 L 78 228 L 76 230 L 63 227 L 60 225 L 56 225 L 53 223 L 49 223 L 47 225 L 47 230 L 69 237 L 74 237 L 76 239 L 81 239 L 84 231 L 84 227 L 86 224 Z
    M 539 214 L 537 212 L 534 212 L 530 214 L 523 215 L 520 217 L 516 217 L 513 219 L 506 220 L 504 222 L 504 228 L 507 234 L 508 241 L 511 242 L 514 241 L 514 235 L 512 232 L 513 227 L 525 224 L 528 222 L 536 221 L 539 219 Z
    M 517 174 L 505 175 L 503 177 L 499 178 L 494 183 L 492 188 L 492 196 L 494 199 L 495 204 L 503 210 L 510 211 L 519 209 L 523 205 L 526 204 L 529 199 L 530 193 L 527 182 L 523 177 Z
    M 510 182 L 515 182 L 521 186 L 522 195 L 513 202 L 505 202 L 500 198 L 499 193 L 500 190 L 506 184 L 508 184 Z
    M 317 171 L 318 175 L 317 178 L 317 190 L 318 191 L 317 194 L 318 199 L 317 218 L 320 228 L 327 235 L 349 249 L 357 251 L 379 239 L 391 229 L 394 221 L 393 216 L 394 181 L 393 180 L 393 170 L 392 169 L 319 169 Z
    M 354 197 L 357 197 L 363 201 L 369 207 L 374 209 L 382 216 L 382 221 L 374 229 L 372 229 L 363 235 L 356 238 L 352 237 L 336 227 L 329 219 L 329 217 L 335 210 L 340 208 L 345 203 L 348 202 Z
    M 357 181 L 358 180 L 375 180 L 376 181 L 380 180 L 383 185 L 382 198 L 381 199 L 377 198 L 362 187 Z
    M 329 197 L 329 183 L 331 180 L 353 180 L 354 181 L 353 184 L 350 185 L 345 190 L 332 199 Z
    M 197 170 L 197 223 L 200 229 L 206 235 L 220 244 L 227 247 L 230 250 L 239 250 L 264 235 L 270 229 L 272 224 L 272 209 L 273 208 L 272 207 L 273 190 L 272 189 L 272 170 L 271 169 L 198 169 Z
    M 207 208 L 211 204 L 259 204 L 262 207 L 262 217 L 261 221 L 253 229 L 249 230 L 236 238 L 233 238 L 224 232 L 222 232 L 221 230 L 217 229 L 208 220 Z
    M 207 186 L 208 183 L 211 180 L 255 180 L 256 181 L 258 180 L 262 185 L 262 189 L 259 193 L 210 193 L 208 191 Z
    M 71 165 L 67 171 L 67 174 L 65 178 L 65 182 L 68 190 L 74 196 L 79 197 L 82 199 L 88 199 L 91 197 L 94 197 L 101 189 L 102 185 L 104 183 L 104 179 L 102 177 L 99 177 L 93 188 L 89 190 L 82 190 L 77 187 L 74 184 L 73 181 L 74 172 L 78 169 L 78 167 L 75 164 Z
    M 502 145 L 490 145 L 483 149 L 477 157 L 477 168 L 479 174 L 485 181 L 490 179 L 490 175 L 484 169 L 484 162 L 490 155 L 495 153 L 499 153 L 503 155 L 510 164 L 512 165 L 514 164 L 514 158 L 510 151 Z
    M 92 135 L 85 142 L 82 151 L 86 162 L 95 169 L 100 170 L 111 169 L 119 160 L 119 157 L 121 153 L 119 145 L 112 137 L 104 133 L 97 133 Z
    M 95 142 L 97 141 L 104 142 L 113 151 L 112 158 L 108 162 L 101 162 L 96 160 L 90 151 L 90 148 Z
    M 471 106 L 468 107 L 446 130 L 447 133 L 459 145 L 462 145 L 464 143 L 464 141 L 457 133 L 457 131 L 475 113 L 474 108 Z
    M 120 105 L 116 107 L 107 116 L 106 121 L 129 144 L 131 144 L 134 142 L 134 137 L 127 130 L 127 128 L 129 126 L 131 126 L 136 129 L 144 130 L 147 128 L 147 125 L 139 120 L 134 119 L 132 117 L 131 110 L 127 106 Z
    M 119 114 L 123 114 L 125 116 L 124 121 L 121 123 L 116 119 L 116 117 Z
    M 279 80 L 274 82 L 257 83 L 244 87 L 240 87 L 233 90 L 229 90 L 219 95 L 216 95 L 214 97 L 211 97 L 203 102 L 191 107 L 188 110 L 186 110 L 175 117 L 162 127 L 161 129 L 157 131 L 130 159 L 112 186 L 112 188 L 102 206 L 97 219 L 97 222 L 95 224 L 92 239 L 90 242 L 90 249 L 87 257 L 87 267 L 85 275 L 86 280 L 85 303 L 87 312 L 88 328 L 90 331 L 90 337 L 92 341 L 93 348 L 95 351 L 95 355 L 102 371 L 102 374 L 107 381 L 112 393 L 127 416 L 137 428 L 156 447 L 175 462 L 191 472 L 193 472 L 215 484 L 227 487 L 229 489 L 236 490 L 247 494 L 253 494 L 257 496 L 263 496 L 264 497 L 274 497 L 279 499 L 311 499 L 316 497 L 326 497 L 353 491 L 356 489 L 360 489 L 362 487 L 374 484 L 376 482 L 379 482 L 381 480 L 389 477 L 408 466 L 425 454 L 452 428 L 467 409 L 474 398 L 474 396 L 477 393 L 477 391 L 481 386 L 482 381 L 489 369 L 492 357 L 494 355 L 494 351 L 497 345 L 497 340 L 499 336 L 499 331 L 501 326 L 502 311 L 504 304 L 504 273 L 503 272 L 503 266 L 502 265 L 501 253 L 499 248 L 499 243 L 497 240 L 497 234 L 494 228 L 494 224 L 492 222 L 489 210 L 485 204 L 482 195 L 477 186 L 474 183 L 471 176 L 459 159 L 432 131 L 428 129 L 414 117 L 398 107 L 386 102 L 378 97 L 365 92 L 362 92 L 360 90 L 356 90 L 353 88 L 345 87 L 342 85 L 335 85 L 332 83 L 326 83 L 325 82 L 315 82 L 314 81 L 304 81 L 303 80 L 289 80 L 288 81 Z
    M 304 295 L 313 294 L 314 295 L 329 296 L 330 297 L 351 297 L 356 298 L 359 301 L 359 393 L 356 396 L 326 395 L 325 394 L 312 394 L 311 393 L 302 394 L 300 391 L 300 299 Z
    M 285 295 L 289 299 L 289 391 L 286 394 L 278 393 L 277 394 L 264 394 L 263 395 L 233 396 L 230 393 L 230 301 L 233 298 L 238 297 L 260 297 L 276 294 Z
    M 414 273 L 414 334 L 412 341 L 412 349 L 405 366 L 405 369 L 399 380 L 385 400 L 375 410 L 374 413 L 366 421 L 362 423 L 354 432 L 336 445 L 333 449 L 329 450 L 308 464 L 301 466 L 300 465 L 300 410 L 307 404 L 324 405 L 334 407 L 368 407 L 370 405 L 370 387 L 373 384 L 381 384 L 382 383 L 383 376 L 379 373 L 372 373 L 370 371 L 370 351 L 371 350 L 380 350 L 383 348 L 382 340 L 378 339 L 375 340 L 370 337 L 370 319 L 375 316 L 381 317 L 383 314 L 383 308 L 381 305 L 373 305 L 370 302 L 370 290 L 371 289 L 369 287 L 364 286 L 361 287 L 359 286 L 347 287 L 346 286 L 335 286 L 334 285 L 325 285 L 324 284 L 303 284 L 300 282 L 300 273 L 303 271 L 411 271 Z
    M 178 271 L 286 271 L 289 273 L 289 282 L 286 284 L 265 284 L 264 285 L 243 286 L 242 287 L 239 286 L 220 287 L 218 289 L 219 290 L 219 302 L 216 305 L 208 305 L 206 308 L 206 314 L 208 317 L 214 316 L 219 319 L 219 337 L 214 340 L 211 339 L 207 340 L 206 342 L 206 348 L 209 350 L 218 350 L 219 351 L 219 371 L 217 373 L 208 373 L 206 376 L 207 383 L 208 384 L 216 384 L 219 387 L 219 405 L 221 407 L 255 407 L 256 406 L 276 405 L 277 404 L 281 404 L 285 406 L 289 411 L 289 465 L 288 466 L 281 464 L 258 449 L 256 449 L 247 440 L 244 439 L 233 430 L 211 408 L 197 389 L 195 388 L 187 373 L 187 371 L 184 367 L 184 364 L 182 362 L 182 359 L 180 356 L 177 345 L 177 339 L 175 332 L 175 273 Z
    M 175 161 L 177 159 L 412 159 L 414 161 L 414 256 L 413 257 L 176 257 L 175 256 Z
    M 433 150 L 434 153 L 447 167 L 464 191 L 464 194 L 467 197 L 472 209 L 475 212 L 475 215 L 480 226 L 480 229 L 482 231 L 482 237 L 485 244 L 485 249 L 487 251 L 487 259 L 490 271 L 490 308 L 487 320 L 487 328 L 485 330 L 485 335 L 482 342 L 482 348 L 480 350 L 480 353 L 475 364 L 475 367 L 472 370 L 467 382 L 464 385 L 464 388 L 457 397 L 456 400 L 451 405 L 450 408 L 442 418 L 434 426 L 434 428 L 431 429 L 423 437 L 413 445 L 410 446 L 405 451 L 402 452 L 393 459 L 390 459 L 387 462 L 375 467 L 374 469 L 369 470 L 358 475 L 355 475 L 353 477 L 347 477 L 340 480 L 335 480 L 333 482 L 305 485 L 304 482 L 306 480 L 314 477 L 315 475 L 321 473 L 324 470 L 335 464 L 343 457 L 356 449 L 368 437 L 374 433 L 398 407 L 414 383 L 414 381 L 419 372 L 426 349 L 427 330 L 428 329 L 428 169 L 427 168 L 427 157 L 428 156 L 428 151 Z
    M 158 150 L 160 150 L 162 154 L 162 160 L 161 161 L 161 329 L 162 330 L 162 340 L 165 351 L 165 356 L 167 358 L 169 368 L 177 385 L 180 388 L 180 390 L 196 413 L 208 426 L 232 448 L 268 473 L 283 480 L 286 483 L 285 485 L 277 485 L 263 482 L 256 482 L 254 480 L 249 480 L 242 477 L 236 477 L 234 475 L 231 475 L 220 470 L 217 470 L 214 467 L 202 462 L 199 459 L 196 459 L 172 442 L 158 429 L 155 428 L 155 426 L 147 418 L 139 408 L 138 405 L 133 400 L 132 397 L 125 388 L 125 385 L 122 382 L 117 370 L 115 369 L 114 363 L 112 361 L 109 350 L 107 348 L 107 342 L 104 335 L 104 330 L 102 328 L 101 313 L 99 308 L 99 271 L 101 266 L 102 251 L 104 249 L 104 244 L 107 237 L 107 231 L 109 229 L 112 218 L 114 216 L 114 212 L 117 209 L 117 207 L 119 205 L 122 197 L 125 194 L 127 188 L 147 161 Z
    M 167 141 L 193 122 L 199 120 L 202 117 L 204 117 L 212 112 L 214 112 L 215 110 L 221 109 L 236 102 L 242 102 L 249 99 L 254 99 L 256 97 L 271 96 L 276 94 L 313 94 L 325 97 L 333 97 L 335 99 L 340 99 L 347 102 L 353 102 L 355 104 L 366 107 L 368 109 L 372 109 L 375 112 L 377 112 L 399 124 L 421 140 L 422 144 L 421 145 L 168 145 Z
    M 156 77 L 152 77 L 149 80 L 149 83 L 159 95 L 158 97 L 155 97 L 153 95 L 139 89 L 136 89 L 132 93 L 132 97 L 140 106 L 145 115 L 152 122 L 154 122 L 157 119 L 157 116 L 148 104 L 149 102 L 152 102 L 166 110 L 169 110 L 175 106 L 174 101 L 169 96 Z
    M 403 69 L 400 72 L 395 81 L 395 91 L 399 97 L 405 102 L 414 105 L 418 109 L 421 110 L 426 107 L 429 107 L 431 109 L 433 109 L 438 115 L 437 123 L 440 126 L 443 127 L 447 118 L 447 113 L 450 108 L 450 103 L 454 93 L 454 90 L 450 87 L 446 86 L 434 94 L 430 95 L 421 102 L 417 102 L 413 97 L 409 96 L 404 91 L 404 82 L 410 75 L 415 73 L 421 75 L 426 79 L 429 78 L 430 74 L 426 70 L 417 66 L 411 66 Z
    M 442 98 L 443 99 L 442 105 L 441 106 L 437 105 L 436 102 L 439 99 Z
    M 182 60 L 167 68 L 165 71 L 174 86 L 179 98 L 181 100 L 186 100 L 201 91 L 199 87 L 195 87 L 191 90 L 185 90 L 184 89 L 184 83 L 191 80 L 192 76 L 191 74 L 188 73 L 182 77 L 179 77 L 177 75 L 176 71 L 181 69 L 186 65 L 186 62 Z
    M 393 54 L 390 56 L 382 77 L 378 84 L 380 89 L 384 89 L 386 87 L 394 69 L 394 66 L 398 60 L 397 56 Z
    M 228 44 L 222 45 L 222 50 L 227 66 L 227 70 L 229 73 L 228 78 L 222 76 L 218 77 L 216 79 L 212 79 L 207 70 L 207 67 L 204 62 L 204 58 L 202 56 L 202 54 L 199 53 L 195 55 L 195 61 L 199 68 L 200 73 L 202 75 L 205 86 L 208 89 L 218 84 L 221 84 L 228 79 L 232 80 L 237 79 L 240 77 L 245 77 L 250 75 L 251 73 L 250 70 L 240 70 L 238 71 L 235 69 L 231 49 Z
    M 355 42 L 352 45 L 344 75 L 346 77 L 355 80 L 370 79 L 377 72 L 379 66 L 379 56 L 377 52 L 368 45 Z
    M 363 50 L 370 57 L 370 66 L 365 72 L 356 73 L 354 71 L 354 66 L 357 60 L 357 56 L 360 51 Z
    M 321 37 L 320 38 L 320 46 L 318 51 L 317 68 L 315 71 L 336 75 L 338 73 L 337 69 L 334 67 L 326 67 L 325 66 L 325 61 L 328 58 L 337 59 L 339 55 L 337 52 L 329 52 L 327 50 L 327 45 L 328 44 L 339 45 L 342 43 L 342 40 L 339 38 L 334 37 Z
    M 267 37 L 268 70 L 269 71 L 274 71 L 276 69 L 276 58 L 275 57 L 275 51 L 276 50 L 278 51 L 280 59 L 285 70 L 290 71 L 293 69 L 294 63 L 298 54 L 300 55 L 301 58 L 301 68 L 302 70 L 307 70 L 309 68 L 308 64 L 308 37 L 307 35 L 296 35 L 295 36 L 289 56 L 285 53 L 284 46 L 279 35 L 269 35 Z
    M 262 10 L 258 12 L 249 12 L 245 14 L 235 15 L 231 17 L 225 17 L 219 20 L 208 22 L 195 27 L 193 29 L 187 30 L 178 35 L 171 37 L 158 45 L 156 45 L 152 49 L 148 50 L 135 58 L 113 75 L 89 98 L 70 120 L 69 123 L 63 130 L 55 143 L 54 147 L 50 151 L 50 153 L 42 166 L 40 173 L 35 182 L 34 188 L 32 190 L 27 203 L 25 214 L 22 220 L 22 226 L 20 230 L 19 240 L 17 244 L 17 253 L 15 257 L 15 322 L 17 325 L 17 335 L 20 344 L 20 349 L 22 353 L 22 359 L 25 365 L 27 376 L 32 389 L 34 391 L 35 397 L 40 406 L 42 413 L 50 426 L 50 428 L 54 432 L 55 436 L 63 449 L 80 471 L 103 495 L 125 514 L 128 515 L 135 521 L 148 529 L 152 530 L 156 534 L 158 534 L 171 542 L 178 544 L 187 549 L 193 550 L 195 552 L 208 557 L 219 559 L 225 562 L 231 562 L 235 564 L 240 564 L 249 567 L 259 567 L 262 569 L 327 569 L 330 567 L 340 567 L 349 564 L 354 564 L 358 562 L 364 562 L 370 559 L 381 557 L 394 552 L 396 550 L 407 547 L 409 545 L 418 542 L 431 534 L 433 534 L 437 530 L 441 529 L 454 521 L 476 504 L 500 481 L 509 471 L 515 462 L 519 459 L 520 456 L 526 449 L 534 436 L 535 432 L 539 428 L 539 426 L 547 413 L 549 406 L 554 397 L 555 391 L 557 389 L 562 376 L 564 365 L 567 359 L 567 353 L 569 349 L 569 344 L 572 335 L 572 325 L 574 322 L 574 257 L 572 253 L 572 244 L 570 240 L 569 230 L 567 226 L 567 220 L 564 214 L 562 203 L 557 190 L 555 188 L 554 182 L 549 173 L 547 166 L 539 153 L 539 151 L 535 147 L 534 143 L 526 130 L 509 108 L 486 84 L 464 65 L 461 64 L 454 58 L 441 50 L 437 49 L 433 45 L 431 45 L 418 37 L 411 35 L 402 30 L 396 29 L 394 27 L 381 22 L 370 20 L 364 17 L 358 17 L 354 15 L 344 14 L 340 12 L 330 12 L 327 10 Z
    M 255 25 L 275 24 L 276 23 L 313 23 L 314 24 L 334 25 L 339 27 L 355 29 L 362 32 L 367 32 L 369 34 L 382 37 L 384 39 L 392 41 L 397 44 L 400 44 L 402 46 L 404 46 L 408 49 L 410 49 L 414 52 L 426 57 L 456 77 L 476 94 L 491 110 L 494 111 L 494 113 L 507 128 L 508 131 L 513 136 L 517 144 L 523 151 L 523 153 L 529 162 L 530 166 L 534 171 L 535 176 L 537 178 L 543 192 L 552 218 L 552 222 L 555 230 L 555 235 L 557 239 L 557 245 L 559 250 L 560 270 L 561 271 L 561 308 L 560 309 L 560 321 L 557 333 L 557 340 L 555 344 L 555 349 L 552 357 L 552 361 L 550 364 L 550 368 L 548 371 L 544 384 L 540 392 L 540 395 L 535 403 L 534 408 L 530 413 L 530 415 L 525 422 L 522 429 L 507 451 L 497 462 L 494 467 L 468 492 L 452 505 L 426 522 L 414 527 L 413 529 L 402 533 L 400 535 L 397 535 L 392 538 L 372 545 L 369 545 L 354 550 L 349 550 L 345 552 L 338 552 L 326 555 L 276 556 L 275 555 L 256 554 L 251 552 L 244 552 L 240 550 L 230 549 L 227 547 L 216 545 L 213 543 L 201 540 L 192 535 L 189 535 L 162 520 L 160 520 L 133 502 L 122 492 L 118 490 L 92 463 L 82 451 L 62 421 L 62 419 L 55 408 L 51 397 L 49 395 L 49 392 L 46 387 L 44 379 L 42 377 L 42 374 L 39 368 L 39 364 L 37 361 L 37 357 L 34 350 L 34 344 L 32 340 L 32 333 L 29 321 L 28 271 L 29 270 L 30 250 L 32 245 L 32 239 L 34 235 L 35 226 L 37 223 L 37 218 L 39 215 L 39 212 L 46 192 L 49 187 L 49 184 L 54 176 L 55 171 L 59 166 L 66 151 L 74 141 L 82 128 L 92 117 L 95 112 L 112 95 L 133 77 L 158 60 L 176 50 L 187 46 L 189 44 L 192 44 L 197 41 L 205 39 L 216 34 L 220 34 L 222 32 L 227 32 L 234 29 L 240 29 L 244 27 L 250 27 Z" fill="#ac202e" fill-rule="evenodd"/>
</svg>
