<?xml version="1.0" encoding="UTF-8"?>
<svg xmlns="http://www.w3.org/2000/svg" width="578" height="579" viewBox="0 0 578 579" role="img" aria-label="Weill Cornell Graduate School Cornell University seal">
  <path d="M 258.00 12.00 L 257.00 13.00 L 250.00 13.00 L 249.00 14.00 L 244.00 14.00 L 243.00 15.00 L 237.00 15.00 L 232.00 17.00 L 227.00 17.00 L 224.00 19.00 L 218.00 19.00 L 216.00 21.00 L 211.00 21.00 L 208.00 23.00 L 204.00 23.00 L 203.00 24.00 L 198.00 25.00 L 195.00 27.00 L 190.00 28.00 L 187.00 30.00 L 185.00 30.00 L 182.00 32.00 L 180.00 32.00 L 177.00 34.00 L 175.00 34.00 L 168.00 38.00 L 166.00 38.00 L 164.00 40.00 L 162.00 40.00 L 160.00 42.00 L 153.00 45.00 L 151.00 47.00 L 149.00 47.00 L 141.00 53.00 L 139.00 53.00 L 133.00 57.00 L 130.00 60.00 L 128.00 60.00 L 124.00 64.00 L 111.00 73.00 L 105.00 79.00 L 99.00 83.00 L 96.00 87.00 L 94.00 88.00 L 94.00 89.00 L 92.00 90.00 L 79.00 103.00 L 75.00 109.00 L 69.00 115.00 L 66.00 120.00 L 62.00 124.00 L 60.00 128.00 L 56.00 132.00 L 56.00 134.00 L 49.00 143.00 L 47.00 148.00 L 43.00 153.00 L 43.00 155.00 L 41.00 157.00 L 38.00 164.00 L 36.00 166.00 L 36.00 168.00 L 34.00 170.00 L 34.00 172.00 L 30.00 179.00 L 30.00 181.00 L 28.00 184.00 L 28.00 186.00 L 26.00 189.00 L 26.00 191.00 L 24.00 194.00 L 23.00 199.00 L 21.00 202.00 L 21.00 204.00 L 19.00 208.00 L 19.00 212.00 L 17.00 215.00 L 17.00 220.00 L 15.00 222.00 L 15.00 228.00 L 13.00 231.00 L 13.00 236.00 L 11.00 241.00 L 11.00 247.00 L 10.00 248.00 L 10.00 253.00 L 9.00 254.00 L 9.00 261.00 L 8.00 262.00 L 8.00 322.00 L 9.00 323.00 L 9.00 328.00 L 10.00 329.00 L 10.00 334.00 L 11.00 335.00 L 11.00 342.00 L 13.00 347.00 L 13.00 351.00 L 15.00 356.00 L 15.00 360.00 L 17.00 363.00 L 17.00 368.00 L 19.00 371.00 L 19.00 375.00 L 21.00 378.00 L 24.00 389.00 L 26.00 392.00 L 26.00 394.00 L 28.00 397.00 L 30.00 404.00 L 32.00 406.00 L 32.00 408.00 L 35.00 413.00 L 35.00 415.00 L 37.00 419.00 L 39.00 421.00 L 45.00 433.00 L 49.00 438.00 L 49.00 440.00 L 68.00 467.00 L 71.00 469.00 L 73.00 473.00 L 75.00 474.00 L 81.00 482.00 L 83.00 483.00 L 84.00 485.00 L 85.00 485.00 L 86.00 487.00 L 97.00 497.00 L 97.00 498.00 L 105.00 504.00 L 106.00 506.00 L 111.00 509.00 L 116.00 514.00 L 128.00 523.00 L 131.00 524.00 L 134.00 527.00 L 137.00 528.00 L 142.00 532.00 L 144.00 532.00 L 149.00 536.00 L 151.00 536.00 L 153.00 538.00 L 164.00 543.00 L 166.00 545.00 L 168.00 545.00 L 171.00 547.00 L 173.00 547.00 L 175.00 549.00 L 182.00 551.00 L 184.00 553.00 L 187.00 553.00 L 190.00 555.00 L 195.00 556.00 L 198.00 558.00 L 201.00 558.00 L 204.00 560.00 L 208.00 560.00 L 211.00 562.00 L 216.00 562.00 L 218.00 564.00 L 223.00 564.00 L 227.00 566.00 L 232.00 566.00 L 237.00 568.00 L 243.00 568.00 L 244.00 569.00 L 249.00 569.00 L 250.00 570.00 L 257.00 570.00 L 258.00 571.00 L 318.00 571.00 L 319.00 570.00 L 325.00 570.00 L 326.00 569.00 L 330.00 569.00 L 331.00 568.00 L 338.00 568.00 L 343.00 566.00 L 348.00 566.00 L 351.00 564.00 L 357.00 564.00 L 360.00 562.00 L 364.00 562.00 L 367.00 560.00 L 371.00 560.00 L 373.00 558.00 L 377.00 558.00 L 380.00 556.00 L 382.00 556.00 L 393.00 551.00 L 395.00 551.00 L 397.00 549.00 L 400.00 549.00 L 402.00 547.00 L 404.00 547.00 L 422.00 538.00 L 424.00 536.00 L 426.00 536.00 L 427.00 534.00 L 431.00 533.00 L 433.00 531.00 L 442.00 526.00 L 445.00 523.00 L 448.00 522.00 L 464.00 509.00 L 469.00 506.00 L 480.00 495.00 L 481.00 495.00 L 481.00 494.00 L 483.00 493.00 L 485.00 490.00 L 487.00 489.00 L 502.00 473.00 L 505.00 468.00 L 518.00 452.00 L 519.00 449.00 L 522.00 446.00 L 527.00 437.00 L 529.00 435.00 L 530.00 431.00 L 532.00 430.00 L 532.00 428.00 L 534.00 426.00 L 543.00 408.00 L 543.00 406.00 L 545.00 404.00 L 545.00 401.00 L 547.00 399.00 L 547.00 397.00 L 551.00 389.00 L 552.00 384.00 L 554.00 381.00 L 554.00 377.00 L 556.00 375.00 L 556.00 371.00 L 558.00 368.00 L 558.00 364.00 L 560.00 361.00 L 560.00 355.00 L 562.00 352.00 L 562.00 347.00 L 564.00 342.00 L 564.00 335.00 L 565.00 334.00 L 566.00 323.00 L 567.00 322.00 L 567.00 262.00 L 566.00 261.00 L 566.00 254.00 L 565.00 253.00 L 565.00 248.00 L 564.00 247.00 L 564.00 240.00 L 562.00 236.00 L 562.00 231.00 L 560.00 227.00 L 560.00 222.00 L 558.00 220.00 L 558.00 215.00 L 556.00 212.00 L 556.00 208.00 L 554.00 205.00 L 554.00 202.00 L 549.00 191.00 L 549.00 188.00 L 547.00 186.00 L 547.00 184.00 L 545.00 181.00 L 545.00 179.00 L 543.00 177.00 L 541.00 170.00 L 539.00 168.00 L 534.00 157.00 L 532.00 155.00 L 532.00 153.00 L 528.00 148.00 L 528.00 146.00 L 524.00 141.00 L 523.00 138.00 L 520.00 135.00 L 519.00 132.00 L 510.00 120.00 L 500.00 109.00 L 500.00 108.00 L 494.00 102.00 L 494.00 101.00 L 493.00 101.00 L 491.00 98.00 L 490.00 98.00 L 489.00 96.00 L 479.00 87.00 L 478.00 85.00 L 470.00 79.00 L 469.00 77.00 L 468.00 77.00 L 463.00 72.00 L 436.00 53.00 L 434.00 53.00 L 429.00 49.00 L 417.00 43.00 L 415.00 41.00 L 411.00 39.00 L 409.00 39.00 L 404.00 36.00 L 402.00 36.00 L 400.00 34.00 L 398.00 34.00 L 385.00 28.00 L 374.00 25.00 L 371.00 23.00 L 367.00 23.00 L 364.00 21.00 L 359.00 21.00 L 356.00 19.00 L 352.00 19.00 L 351.00 18.00 L 343.00 17.00 L 338.00 15.00 L 332.00 15.00 L 331.00 14.00 L 319.00 13.00 L 318.00 12.00 Z
M 258.00 26.00 L 273.00 26.00 L 274.00 25.00 L 302.00 25.00 L 303.00 26.00 L 317.00 26.00 L 322.00 28.00 L 333.00 28.00 L 336.00 30.00 L 342.00 30.00 L 345.00 32.00 L 350.00 32.00 L 354.00 34.00 L 358.00 34.00 L 361.00 36.00 L 365.00 36.00 L 368.00 38.00 L 370.00 38.00 L 377.00 41.00 L 380.00 41.00 L 382.00 43.00 L 384.00 43.00 L 387.00 45.00 L 390.00 45.00 L 392.00 47.00 L 399.00 49.00 L 401.00 51.00 L 407.00 54.00 L 409.00 54.00 L 411.00 56.00 L 413.00 56.00 L 418.00 60.00 L 420.00 60.00 L 425.00 64.00 L 428.00 65.00 L 455.00 84.00 L 456.00 86.00 L 460.00 88.00 L 463.00 92.00 L 464.00 92.00 L 474.00 102.00 L 475.00 102.00 L 476.00 104.00 L 489.00 117.00 L 493.00 123.00 L 498.00 128.00 L 500.00 132.00 L 504.00 136.00 L 512.00 148.00 L 513.00 151.00 L 519.00 159.00 L 523.00 168.00 L 525.00 170.00 L 525.00 172.00 L 528.00 178.00 L 530.00 180.00 L 530.00 182.00 L 532.00 185.00 L 532.00 187.00 L 535.00 192.00 L 536.00 197.00 L 540.00 205.00 L 541.00 212.00 L 543.00 215.00 L 543.00 218.00 L 545.00 221.00 L 545.00 225.00 L 547.00 229.00 L 547.00 234.00 L 549.00 236.00 L 549.00 244.00 L 551.00 248.00 L 551.00 257.00 L 553.00 262.00 L 553.00 276.00 L 554.00 277.00 L 554.00 305.00 L 553.00 306.00 L 553.00 320.00 L 552.00 321.00 L 552.00 326.00 L 551.00 327.00 L 551.00 335.00 L 549.00 340.00 L 549.00 346.00 L 547.00 349.00 L 547.00 354.00 L 543.00 365.00 L 543.00 369.00 L 541.00 372.00 L 540.00 378.00 L 538.00 381.00 L 538.00 384.00 L 536.00 386.00 L 536.00 389.00 L 534.00 391.00 L 534.00 394.00 L 532.00 396.00 L 532.00 399.00 L 530.00 400.00 L 530.00 403.00 L 528.00 405.00 L 528.00 407.00 L 526.00 409.00 L 521.00 420.00 L 519.00 422.00 L 519.00 424.00 L 515.00 429.00 L 514.00 432.00 L 504.00 447.00 L 495.00 459.00 L 493.00 460.00 L 489.00 466.00 L 487.00 467.00 L 487.00 468.00 L 471.00 484.00 L 471.00 485.00 L 463.00 491.00 L 462.00 493.00 L 456.00 497.00 L 455.00 499.00 L 443.00 508.00 L 428.00 518.00 L 425.00 519.00 L 420.00 523.00 L 418.00 523.00 L 416.00 525.00 L 397.00 534.00 L 395.00 536.00 L 392.00 536.00 L 390.00 538.00 L 387.00 538.00 L 385.00 540.00 L 382.00 540.00 L 380.00 542.00 L 377.00 542.00 L 374.00 544.00 L 371.00 544.00 L 365.00 547.00 L 362.00 547.00 L 358.00 549.00 L 353.00 549.00 L 350.00 551.00 L 345.00 551.00 L 342.00 553.00 L 336.00 553.00 L 331.00 555.00 L 323.00 555.00 L 322.00 556.00 L 317.00 556.00 L 316.00 557.00 L 302.00 557.00 L 301.00 558.00 L 273.00 558.00 L 272.00 557.00 L 258.00 557.00 L 253.00 555.00 L 244.00 555.00 L 240.00 553.00 L 232.00 553.00 L 230.00 551.00 L 225.00 551.00 L 222.00 549.00 L 217.00 549.00 L 214.00 547.00 L 210.00 547.00 L 207.00 545.00 L 201.00 544.00 L 198.00 542.00 L 195.00 542.00 L 193.00 540.00 L 191.00 540.00 L 188.00 538.00 L 186.00 538.00 L 183.00 536.00 L 176.00 534.00 L 174.00 532.00 L 170.00 531.00 L 168.00 529.00 L 166.00 529.00 L 160.00 525.00 L 158.00 525.00 L 153.00 521.00 L 150.00 520.00 L 132.00 508.00 L 120.00 499.00 L 119.00 497.00 L 113.00 493.00 L 104.00 484.00 L 103.00 484.00 L 102.00 482.00 L 93.00 474.00 L 93.00 473.00 L 86.00 466.00 L 82.00 460.00 L 80.00 459.00 L 71.00 447.00 L 61.00 432.00 L 60.00 429.00 L 56.00 424.00 L 56.00 422.00 L 52.00 417.00 L 52.00 415.00 L 50.00 413.00 L 50.00 411.00 L 47.00 405.00 L 45.00 403.00 L 43.00 396.00 L 41.00 394.00 L 41.00 391.00 L 39.00 388.00 L 39.00 386.00 L 37.00 384.00 L 37.00 381.00 L 36.00 380.00 L 34.00 372.00 L 32.00 369.00 L 32.00 365.00 L 30.00 362.00 L 30.00 358.00 L 28.00 354.00 L 28.00 349.00 L 26.00 346.00 L 26.00 340.00 L 24.00 336.00 L 24.00 327.00 L 22.00 322.00 L 22.00 307.00 L 21.00 306.00 L 21.00 278.00 L 22.00 277.00 L 22.00 262.00 L 23.00 261.00 L 23.00 256.00 L 24.00 255.00 L 24.00 248.00 L 26.00 244.00 L 26.00 237.00 L 28.00 235.00 L 28.00 229.00 L 30.00 225.00 L 30.00 221.00 L 32.00 218.00 L 32.00 214.00 L 35.00 208.00 L 35.00 206.00 L 37.00 202.00 L 37.00 199.00 L 39.00 197.00 L 39.00 194.00 L 41.00 191.00 L 41.00 189.00 L 43.00 187.00 L 43.00 185.00 L 50.00 172.00 L 50.00 170.00 L 52.00 168.00 L 52.00 166.00 L 56.00 161.00 L 56.00 159.00 L 60.00 154.00 L 61.00 151.00 L 80.00 124.00 L 82.00 123.00 L 86.00 117.00 L 113.00 90.00 L 119.00 86.00 L 120.00 84.00 L 147.00 65.00 L 150.00 64.00 L 155.00 60.00 L 157.00 60.00 L 158.00 58.00 L 160.00 58.00 L 166.00 54.00 L 168.00 54.00 L 181.00 47.00 L 183.00 47.00 L 185.00 45.00 L 187.00 45.00 L 190.00 43.00 L 193.00 43.00 L 195.00 41.00 L 198.00 41.00 L 210.00 36.00 L 214.00 36.00 L 217.00 34.00 L 221.00 34.00 L 225.00 32.00 L 230.00 32.00 L 232.00 30.00 L 240.00 30.00 L 244.00 28.00 L 252.00 28.00 L 253.00 27.00 L 257.00 27.00 Z
M 268.00 514.00 L 267.00 515.00 L 267.00 541.00 L 269.00 545.00 L 274.00 549.00 L 289.00 549.00 L 293.00 546.00 L 295.00 543.00 L 295.00 540.00 L 296.00 539.00 L 296.00 526.00 L 297.00 525.00 L 297.00 516.00 L 296.00 514.00 L 290.00 514.00 L 289.00 516.00 L 288.00 539.00 L 284.00 543.00 L 279.00 543.00 L 277.00 542.00 L 275.00 538.00 L 275.00 523.00 L 276.00 522.00 L 276.00 515.00 L 275.00 514.00 Z
M 331.00 510.00 L 330.00 511.00 L 327.00 511.00 L 326.00 513.00 L 327.00 514.00 L 327.00 525.00 L 329.00 530.00 L 328.00 532.00 L 325.00 530.00 L 315.00 514.00 L 313.00 513.00 L 311.00 514.00 L 305.00 514.00 L 304.00 516.00 L 305.00 517.00 L 305.00 522.00 L 306.00 523.00 L 306.00 532.00 L 308.00 537.00 L 308.00 546.00 L 310.00 549.00 L 314.00 549.00 L 316.00 547.00 L 316.00 544.00 L 315.00 543.00 L 315.00 534.00 L 314.00 533.00 L 314.00 529.00 L 315.00 528.00 L 317.00 529.00 L 327.00 545.00 L 330.00 547.00 L 331.00 546.00 L 338.00 545.00 L 338.00 541.00 L 337.00 540.00 L 337.00 536.00 L 336.00 535.00 L 336.00 525.00 L 334.00 521.00 L 334.00 512.00 Z
M 345.00 507.00 L 340.00 509.00 L 342.00 514.00 L 342.00 518.00 L 344.00 522.00 L 344.00 525.00 L 345.00 526.00 L 345.00 529.00 L 347.00 534.00 L 347.00 539.00 L 349.00 542.00 L 353.00 542.00 L 354.00 541.00 L 356.00 541.00 L 356.00 538.00 L 355.00 537.00 L 355.00 534.00 L 353.00 529.00 L 353.00 525.00 L 351.00 522.00 L 351.00 517.00 L 349.00 514.00 L 349.00 509.00 L 347.00 507.00 Z
M 230.00 506.00 L 228.00 507.00 L 228.00 512.00 L 226.00 516.00 L 226.00 521.00 L 224.00 524.00 L 224.00 528.00 L 222.00 532.00 L 221.00 539.00 L 228.00 542.00 L 232.00 542.00 L 237.00 544.00 L 241.00 544.00 L 242.00 543.00 L 242.00 538.00 L 238.00 538.00 L 235.00 536.00 L 231.00 536.00 L 230.00 535.00 L 231.00 528.00 L 233.00 524.00 L 233.00 520.00 L 234.00 519.00 L 235.00 512.00 L 236.00 511.00 L 236.00 507.00 L 234.00 506.00 Z
M 206.00 497.00 L 203.00 501.00 L 202.00 506.00 L 198.00 514.00 L 198.00 517.00 L 196.00 520.00 L 196.00 522.00 L 194.00 524.00 L 194.00 528.00 L 193.00 529.00 L 195.00 531.00 L 200.00 532.00 L 203.00 534.00 L 205.00 534.00 L 207.00 536.00 L 211.00 536.00 L 212.00 537.00 L 214.00 534.00 L 214.00 531.00 L 210.00 529.00 L 207.00 529.00 L 203.00 526.00 L 203.00 524.00 L 205.00 521.00 L 207.00 513.00 L 209.00 510.00 L 209.00 508.00 L 211.00 505.00 L 211.00 502.00 L 212.00 501.00 L 212.00 499.00 L 210.00 499.00 Z
M 382.00 495.00 L 380.00 495.00 L 375.00 498.00 L 375.00 513.00 L 376.00 514.00 L 376.00 520.00 L 375.00 521.00 L 371.00 518.00 L 371.00 517.00 L 360.00 504.00 L 355.00 504.00 L 353.00 505.00 L 353.00 509.00 L 359.00 515.00 L 362.00 520.00 L 366.00 524.00 L 366.00 525.00 L 368.00 526.00 L 370.00 530.00 L 371.00 530.00 L 374.00 534.00 L 380.00 534.00 L 383.00 532.00 L 383.00 503.00 L 382.00 502.00 L 383.00 498.00 L 382.00 497.00 Z
M 180.00 485.00 L 174.00 494.00 L 174.00 496.00 L 172.00 498.00 L 172.00 500.00 L 170.00 502.00 L 166.00 511.00 L 164.00 513.00 L 164.00 515.00 L 169.00 519.00 L 171.00 519.00 L 173.00 521.00 L 175.00 521.00 L 177.00 523.00 L 182.00 525.00 L 184.00 523.00 L 185.00 520.00 L 183.00 518.00 L 176.00 515.00 L 174.00 512.00 L 178.00 506.00 L 188.00 511.00 L 190.00 509.00 L 190.00 505.00 L 181.00 500.00 L 181.00 498.00 L 183.00 495.00 L 185.00 494.00 L 194.00 499.00 L 196.00 499.00 L 198.00 496.00 L 198.00 493.00 L 187.00 488.00 L 185.00 486.00 Z
M 404.00 483.00 L 403.00 484.00 L 401.00 484.00 L 399.00 486.00 L 397.00 486.00 L 395.00 488.00 L 391.00 489.00 L 387.00 492.00 L 387.00 494.00 L 390.00 500.00 L 392.00 502.00 L 392.00 504.00 L 396.00 509.00 L 396.00 511.00 L 398.00 513.00 L 401.00 520.00 L 405.00 523.00 L 410.00 519.00 L 412.00 519.00 L 414.00 517.00 L 419.00 515.00 L 421.00 513.00 L 421.00 511.00 L 419.00 508.00 L 417.00 508.00 L 415.00 510.00 L 409.00 513.00 L 407.00 513.00 L 405.00 511.00 L 404.00 507.00 L 410.00 502.00 L 412.00 502.00 L 413.00 499.00 L 410.00 495.00 L 408.00 497.00 L 406.00 497.00 L 404.00 499.00 L 402.00 499.00 L 401.00 500.00 L 398.00 498.00 L 397.00 494.00 L 403.00 491.00 L 405.00 489.00 L 407.00 489.00 L 407.00 485.00 Z
M 426.00 468.00 L 425.00 469.00 L 423.00 469.00 L 419.00 473.00 L 417.00 473.00 L 411.00 478.00 L 411.00 480.00 L 422.00 494.00 L 430.00 506.00 L 434.00 506.00 L 437.00 503.00 L 437.00 501.00 L 430.00 492.00 L 432.00 489.00 L 434.00 489.00 L 438.00 491.00 L 445.00 496.00 L 451.00 493.00 L 452.00 491.00 L 442.00 484.00 L 440.00 484.00 L 437.00 482.00 L 437.00 478.00 L 438.00 477.00 L 437.00 476.00 L 437.00 473.00 L 433.00 469.00 L 431.00 468.00 Z
M 428.00 476.00 L 430.00 478.00 L 430.00 482.00 L 428.00 484.00 L 425.00 485.00 L 423.00 483.00 L 422.00 479.00 L 425.00 476.00 Z
M 150.00 463.00 L 148.00 466.00 L 146.00 467.00 L 144.00 471.00 L 140.00 475.00 L 138.00 479.00 L 131.00 487.00 L 131.00 489.00 L 129.00 490.00 L 129.00 491.00 L 133.00 495.00 L 136.00 495.00 L 136.00 494.00 L 138.00 493.00 L 138.00 491.00 L 142.00 487.00 L 145.00 482.00 L 147.00 481.00 L 148.00 482.00 L 148.00 489.00 L 146.00 492.00 L 146.00 501.00 L 145.00 502.00 L 148.00 506.00 L 151.00 508.00 L 153.00 508.00 L 153.00 507.00 L 155.00 506.00 L 157.00 502.00 L 163.00 495.00 L 164.00 492.00 L 166.00 491.00 L 168.00 487.00 L 171.00 484.00 L 172.00 479.00 L 167.00 476.00 L 159.00 486.00 L 157.00 490.00 L 155.00 491.00 L 154.00 490.00 L 154.00 485.00 L 155.00 484.00 L 155.00 478.00 L 157.00 473.00 L 157.00 469.00 L 156.00 467.00 Z
M 448.00 447.00 L 445.00 449.00 L 439.00 456.00 L 439.00 465.00 L 446.00 471.00 L 451.00 471.00 L 461.00 467.00 L 464.00 470.00 L 463.00 474.00 L 458.00 478.00 L 456.00 478.00 L 455.00 479.00 L 458.00 484.00 L 461.00 484.00 L 469.00 477.00 L 472.00 471.00 L 472.00 468.00 L 470.00 464.00 L 464.00 459.00 L 462.00 459.00 L 461.00 460.00 L 456.00 460.00 L 452.00 462.00 L 448.00 462.00 L 446.00 460.00 L 446.00 458.00 L 449.00 454.00 L 453.00 452.00 L 453.00 449.00 L 451.00 447.00 Z
M 128.00 441.00 L 127.00 441.00 L 103.00 465.00 L 103.00 467.00 L 104.00 467.00 L 107.00 471.00 L 109.00 471.00 L 118.00 462.00 L 120.00 463.00 L 120.00 469.00 L 118.00 471.00 L 118.00 473.00 L 116.00 476.00 L 116.00 480.00 L 120.00 484.00 L 123.00 482.00 L 123.00 479.00 L 125.00 478.00 L 125.00 475.00 L 127.00 473.00 L 127.00 468.00 L 128.00 467.00 L 136.00 467.00 L 138.00 466.00 L 141.00 460.00 L 140.00 458.00 L 140.00 454.00 L 138.00 453.00 L 136.00 449.00 Z
M 128.00 452.00 L 129.00 452.00 L 133.00 456.00 L 133.00 458.00 L 130.00 461.00 L 128.00 461.00 L 124.00 458.00 L 124.00 456.00 Z
M 458.00 435.00 L 455.00 440.00 L 480.00 462.00 L 482.00 462.00 L 486.00 457.00 L 485.00 455.00 L 460.00 434.00 Z
M 105.00 415.00 L 95.00 415.00 L 89.00 418.00 L 82.00 425.00 L 82.00 427.00 L 80.00 430.00 L 80.00 436.00 L 84.00 444.00 L 91.00 450.00 L 94.00 450.00 L 95.00 451.00 L 104.00 450.00 L 112.00 445.00 L 114.00 443.00 L 117.00 437.00 L 117.00 435.00 L 118.00 434.00 L 117.00 433.00 L 117.00 428.00 L 116.00 427.00 L 116.00 425.00 L 109.00 417.00 Z
M 107.00 424.00 L 110.00 429.00 L 110.00 434.00 L 104.00 441.00 L 102.00 441.00 L 100.00 443.00 L 93.00 443.00 L 88.00 438.00 L 88.00 432.00 L 89.00 430.00 L 95.00 424.00 L 98.00 424.00 L 100.00 422.00 L 103.00 422.00 Z
M 92.00 389.00 L 88.00 387.00 L 84.00 387.00 L 83.00 386.00 L 81.00 386.00 L 80.00 387.00 L 75.00 387.00 L 71.00 389.00 L 65.00 395.00 L 63.00 399.00 L 63.00 408.00 L 64.00 409.00 L 65.00 414.00 L 69.00 420.00 L 72.00 420.00 L 75.00 418.00 L 75.00 416.00 L 71.00 411.00 L 70.00 404.00 L 71.00 403.00 L 71.00 401.00 L 76.00 396.00 L 78.00 396.00 L 81.00 394.00 L 86.00 394.00 L 89.00 396.00 L 93.00 401.00 L 94.00 407.00 L 99.00 407.00 L 100.00 406.00 L 100.00 401.00 L 99.00 400.00 L 99.00 398.00 L 97.00 396.00 L 97.00 394.00 Z
M 494.00 379.00 L 491.00 382.00 L 490.00 387.00 L 497.00 397.00 L 497.00 399.00 L 496.00 400.00 L 483.00 400.00 L 480.00 404.00 L 480.00 407.00 L 473.00 415.00 L 472.00 418.00 L 463.00 430.00 L 463.00 432.00 L 468.00 435.00 L 470.00 431.00 L 473.00 428.00 L 475.00 428.00 L 478.00 431.00 L 497.00 443.00 L 500.00 439.00 L 500.00 436.00 L 479.00 421.00 L 479.00 418.00 L 482.00 415.00 L 482.00 411.00 L 481.00 409.00 L 482.00 408.00 L 488.00 408.00 L 489.00 407.00 L 505.00 407.00 L 511.00 411.00 L 516.00 412.00 L 519.00 406.00 L 513.00 402.00 L 511.00 402.00 L 509.00 400.00 L 507.00 400.00 L 506.00 399.00 L 506.00 397.00 L 504.00 396.00 L 504.00 394.00 Z
M 502.00 352.00 L 506.00 354.00 L 509.00 353.00 L 510.00 346.00 L 511.00 345.00 L 511.00 343.00 L 513.00 341.00 L 515.00 342.00 L 520.00 342.00 L 528.00 345.00 L 532.00 345.00 L 533.00 346.00 L 541.00 347.00 L 542.00 340.00 L 539.00 338.00 L 534.00 338.00 L 533.00 337.00 L 530.00 337.00 L 525.00 335.00 L 520.00 335.00 L 516.00 333.00 L 507.00 332.00 L 506.00 333.00 L 506.00 338.00 L 504.00 341.00 L 504.00 346.00 L 503.00 347.00 Z
M 32.00 306.00 L 32.00 312.00 L 35.00 314.00 L 51.00 314.00 L 56.00 316.00 L 55.00 318.00 L 52.00 318.00 L 41.00 323.00 L 38.00 323.00 L 34.00 326.00 L 36.00 336.00 L 55.00 336.00 L 59.00 338.00 L 58.00 340.00 L 55.00 340.00 L 53.00 342.00 L 50.00 342.00 L 48.00 344.00 L 45.00 344.00 L 43.00 346.00 L 40.00 346.00 L 38.00 348.00 L 38.00 354.00 L 39.00 355.00 L 43.00 355.00 L 49.00 351.00 L 52.00 351.00 L 59.00 347.00 L 61.00 347.00 L 73.00 341.00 L 73.00 332.00 L 72.00 331.00 L 61.00 331.00 L 60.00 330.00 L 54.00 330.00 L 52.00 328.00 L 54.00 325.00 L 57.00 325.00 L 59.00 323.00 L 62.00 323.00 L 64.00 321.00 L 67.00 321.00 L 70.00 319.00 L 70.00 315.00 L 69.00 314.00 L 69.00 310.00 L 68.00 309.00 L 53.00 308.00 L 52.00 307.00 L 44.00 307.00 L 43.00 306.00 L 35.00 306.00 L 34.00 305.00 Z
M 515.00 297.00 L 512.00 300.00 L 509.00 307.00 L 509.00 317.00 L 513.00 325.00 L 516.00 327.00 L 518.00 327.00 L 520.00 329.00 L 523.00 329.00 L 524.00 330.00 L 532.00 330.00 L 540.00 327.00 L 545.00 321.00 L 545.00 318.00 L 547.00 315.00 L 547.00 308.00 L 543.00 300.00 L 540.00 297.00 L 532.00 294.00 L 522.00 294.00 Z
M 515.00 309.00 L 521.00 303.00 L 533.00 303.00 L 539.00 308.00 L 540.00 310.00 L 540.00 315.00 L 533.00 321.00 L 523.00 321.00 L 517.00 317.00 L 515.00 314.00 Z
M 32.00 278.00 L 32.00 297.00 L 35.00 299.00 L 68.00 299.00 L 69.00 298.00 L 69.00 278.00 L 68.00 277.00 L 63.00 277.00 L 62.00 278.00 L 62.00 289.00 L 60.00 291.00 L 55.00 291.00 L 54.00 290.00 L 54.00 279.00 L 52.00 278.00 L 47.00 278.00 L 47.00 288.00 L 45.00 290.00 L 40.00 290.00 L 39.00 289.00 L 39.00 277.00 L 33.00 277.00 Z
M 34.00 262.00 L 34.00 269.00 L 44.00 270.00 L 45.00 271.00 L 56.00 271.00 L 57.00 272.00 L 69.00 273.00 L 70.00 268.00 L 71.00 267.00 L 71.00 266.00 L 66.00 264.00 L 53.00 264.00 L 52.00 263.00 L 48.00 263.00 L 47.00 262.00 Z
M 518.00 256.00 L 511.00 262.00 L 509.00 267.00 L 509.00 276.00 L 510.00 277.00 L 510.00 281.00 L 515.00 287.00 L 522.00 290.00 L 533.00 290.00 L 541.00 286.00 L 545.00 281.00 L 545.00 279.00 L 547.00 276.00 L 547.00 269.00 L 546.00 268.00 L 545.00 263.00 L 543.00 260.00 L 538.00 256.00 L 536.00 256.00 L 533.00 254.00 L 524.00 254.00 L 523.00 255.00 Z
M 515.00 270.00 L 523.00 263.00 L 533.00 263.00 L 537.00 265.00 L 540.00 269.00 L 540.00 275.00 L 533.00 281.00 L 524.00 282.00 L 519.00 280.00 L 515.00 275.00 Z
M 82.00 218.00 L 79.00 215.00 L 75.00 215.00 L 75.00 217.00 L 73.00 221.00 L 73.00 225.00 L 71.00 227.00 L 64.00 226.00 L 61.00 224.00 L 58.00 224.00 L 48.00 220.00 L 43.00 220.00 L 41.00 223.00 L 42.00 228.00 L 46.00 228.00 L 49.00 230.00 L 59.00 232.00 L 69.00 236.00 L 69.00 238.00 L 67.00 242.00 L 67.00 248.00 L 65.00 250.00 L 62.00 251.00 L 57.00 249.00 L 52.00 249.00 L 47.00 247.00 L 40.00 247.00 L 39.00 246.00 L 37.00 246.00 L 36.00 247.00 L 36.00 251.00 L 35.00 253.00 L 36.00 254.00 L 41.00 254.00 L 44.00 256.00 L 52.00 256.00 L 56.00 258.00 L 61.00 258.00 L 66.00 260.00 L 70.00 260.00 L 73.00 252.00 L 73.00 246.00 L 75.00 242.00 L 74.00 238.00 L 76.00 236.00 L 76.00 234.00 L 78.00 230.00 L 78.00 227.00 L 80.00 224.00 L 80.00 220.00 Z
M 501.00 191.00 L 495.00 197.00 L 495.00 200.00 L 493.00 204.00 L 493.00 207.00 L 495.00 210.00 L 495.00 214.00 L 498.00 220.00 L 501.00 222.00 L 501.00 224.00 L 500.00 225.00 L 501.00 226.00 L 501.00 230.00 L 503.00 232.00 L 505.00 232.00 L 508.00 230.00 L 513.00 230.00 L 514.00 229.00 L 516.00 229.00 L 519.00 234.00 L 519.00 237.00 L 520.00 238.00 L 520.00 240.00 L 518.00 242.00 L 516.00 242.00 L 515.00 243.00 L 510.00 243.00 L 506.00 245.00 L 506.00 250.00 L 507.00 252.00 L 513.00 252.00 L 516.00 250.00 L 520.00 250.00 L 524.00 248.00 L 528.00 248.00 L 529.00 247.00 L 532.00 247.00 L 536.00 245.00 L 540.00 245.00 L 542.00 244.00 L 542.00 241.00 L 540.00 236.00 L 539.00 237.00 L 531.00 238.00 L 530.00 239.00 L 527.00 239.00 L 526.00 238.00 L 526.00 234.00 L 524.00 230.00 L 524.00 227.00 L 525.00 226.00 L 529.00 226.00 L 532.00 224.00 L 536.00 224.00 L 538.00 222.00 L 535.00 216.00 L 533.00 216.00 L 532.00 217.00 L 526.00 217.00 L 523.00 219.00 L 519.00 219.00 L 515.00 221.00 L 507.00 222.00 L 506.00 223.00 L 504.00 222.00 L 506.00 219.00 L 502.00 213.00 L 502.00 211.00 L 501.00 210.00 L 501.00 205.00 L 502.00 204.00 L 502.00 202.00 L 506.00 198.00 L 510.00 196.00 L 518.00 196.00 L 523.00 199.00 L 523.00 201.00 L 525.00 203.00 L 526.00 210.00 L 530.00 210.00 L 532.00 209.00 L 532.00 202.00 L 530.00 200.00 L 530.00 198.00 L 526.00 192.00 L 522.00 189.00 L 520.00 189.00 L 517.00 187.00 L 510.00 187.00 L 507.00 189.00 L 505.00 189.00 Z
M 67.00 164.00 L 62.00 169.00 L 62.00 171.00 L 60.00 174.00 L 60.00 180.00 L 59.00 181.00 L 60.00 182.00 L 60.00 188.00 L 67.00 196.00 L 69.00 196.00 L 71.00 198.00 L 74.00 198.00 L 78.00 200.00 L 81.00 200.00 L 82.00 199.00 L 87.00 198.00 L 90.00 196.00 L 90.00 195.00 L 95.00 190.00 L 95.00 188.00 L 97.00 186.00 L 97.00 182.00 L 98.00 181.00 L 97.00 178.00 L 92.00 177.00 L 92.00 179.00 L 89.00 186.00 L 83.00 191.00 L 76.00 191.00 L 74.00 189.00 L 72.00 189.00 L 67.00 183.00 L 67.00 174.00 L 69.00 173.00 L 69.00 171.00 L 71.00 170.00 L 72.00 168.00 L 70.00 165.00 Z
M 511.00 161.00 L 503.00 159.00 L 500.00 161.00 L 498.00 161.00 L 495.00 164.00 L 495.00 166.00 L 493.00 169.00 L 493.00 172.00 L 495.00 176.00 L 495.00 180.00 L 492.00 183.00 L 490.00 183.00 L 485.00 178.00 L 485.00 174.00 L 484.00 172.00 L 480.00 172.00 L 478.00 174.00 L 478.00 178.00 L 480.00 181.00 L 480.00 183.00 L 483.00 187.00 L 488.00 191.00 L 495.00 191.00 L 500.00 188.00 L 502.00 185.00 L 502.00 170.00 L 504.00 168.00 L 507.00 168.00 L 510.00 171.00 L 511.00 176.00 L 512.00 177.00 L 517.00 176.00 L 518.00 175.00 L 517.00 170.00 Z
M 87.00 136.00 L 81.00 140.00 L 78.00 144.00 L 77.00 148.00 L 75.00 151.00 L 75.00 157.00 L 77.00 160.00 L 77.00 162.00 L 80.00 166.00 L 82.00 167.00 L 82.00 168.00 L 89.00 172.00 L 103.00 172.00 L 107.00 168.00 L 108.00 168.00 L 112.00 162.00 L 112.00 159.00 L 113.00 158.00 L 113.00 150.00 L 112.00 149.00 L 112.00 147.00 L 106.00 140.00 L 103.00 139.00 L 99.00 136.00 L 97.00 136.00 L 96.00 135.00 L 90.00 135.00 L 89.00 136.00 Z
M 84.00 147.00 L 86.00 146.00 L 87.00 144.00 L 96.00 144.00 L 98.00 146.00 L 100.00 146.00 L 106.00 154.00 L 106.00 158.00 L 104.00 162.00 L 100.00 165.00 L 94.00 165.00 L 92.00 163.00 L 89.00 162.00 L 84.00 157.00 L 84.00 155.00 L 82.00 153.00 L 82.00 151.00 L 84.00 149.00 Z
M 483.00 122.00 L 479.00 122.00 L 473.00 128.00 L 468.00 131.00 L 467.00 133.00 L 466.00 133.00 L 454.00 143.00 L 454.00 145.00 L 467.00 160.00 L 470.00 159.00 L 472.00 157.00 L 470.00 153.00 L 465.00 148.00 L 465.00 145.00 L 467.00 144.00 L 468.00 142.00 L 472.00 142.00 L 478.00 149.00 L 480.00 149.00 L 483.00 147.00 L 483.00 144.00 L 477.00 138.00 L 477.00 136.00 L 479.00 133.00 L 482.00 132.00 L 490.00 141.00 L 492.00 141.00 L 495.00 138.00 L 494.00 135.00 Z
M 458.00 97.00 L 454.00 100.00 L 454.00 103.00 L 455.00 103.00 L 459.00 108.00 L 459.00 110.00 L 455.00 114.00 L 454.00 114.00 L 453.00 116.00 L 452.00 116.00 L 452.00 117.00 L 441.00 128.00 L 440.00 130.00 L 441.00 132.00 L 445.00 135.00 L 446.00 135.00 L 459.00 122.00 L 459.00 121.00 L 464.00 117.00 L 465.00 115.00 L 467.00 115.00 L 472.00 120.00 L 475.00 120.00 L 478.00 117.00 L 477.00 115.00 Z
M 438.00 82.00 L 435.00 82.00 L 405.00 102.00 L 405.00 103.00 L 410.00 107.00 L 413.00 107.00 L 417.00 103.00 L 419.00 103.00 L 425.00 107.00 L 429.00 111.00 L 429.00 113.00 L 428.00 114.00 L 428.00 120.00 L 434.00 124.00 L 435.00 123.00 L 435.00 119.00 L 437.00 117.00 L 437.00 113.00 L 438.00 112.00 L 438.00 109.00 L 440.00 104.00 L 440.00 100.00 L 442.00 97.00 L 442.00 93.00 L 444.00 90.00 L 444.00 86.00 Z
M 433.00 93.00 L 434.00 94.00 L 433.00 96.00 L 433.00 100.00 L 432.00 102.00 L 430.00 103.00 L 426.00 100.00 L 426.00 98.00 Z
M 271.00 81.00 L 270.00 82.00 L 256.00 83.00 L 255.00 84.00 L 250.00 84.00 L 249.00 85.00 L 240.00 86.00 L 236.00 88.00 L 232.00 88.00 L 229.00 90.00 L 226.00 90.00 L 223.00 92.00 L 220.00 92.00 L 212.00 96.00 L 207.00 97.00 L 204.00 99.00 L 202.00 99.00 L 200.00 101.00 L 198.00 101.00 L 196.00 103.00 L 194.00 103.00 L 192.00 105.00 L 175.00 114.00 L 161.00 124.00 L 156.00 129.00 L 154.00 129.00 L 154.00 130.00 L 131.00 152.00 L 127.00 158.00 L 125.00 159.00 L 125.00 160.00 L 121.00 164.00 L 120.00 167.00 L 116.00 171.00 L 111.00 180.00 L 108.00 183.00 L 108.00 185.00 L 106.00 187.00 L 105.00 190.00 L 103.00 192.00 L 103.00 194.00 L 101.00 196.00 L 101.00 198.00 L 99.00 200.00 L 99.00 202.00 L 95.00 209.00 L 94.00 214.00 L 90.00 222.00 L 90.00 225.00 L 88.00 228.00 L 88.00 231.00 L 86.00 235.00 L 86.00 239.00 L 84.00 242.00 L 84.00 248.00 L 82.00 251.00 L 82.00 258.00 L 80.00 262.00 L 81.00 265.00 L 80.00 266.00 L 80.00 274.00 L 79.00 275.00 L 79.00 308.00 L 80.00 309.00 L 80.00 317.00 L 81.00 318.00 L 80.00 320.00 L 81.00 321.00 L 81.00 325.00 L 82.00 326.00 L 82.00 332.00 L 84.00 336.00 L 84.00 341.00 L 86.00 345.00 L 86.00 349.00 L 88.00 351.00 L 88.00 355.00 L 90.00 358.00 L 90.00 361.00 L 92.00 364.00 L 93.00 369.00 L 95.00 371.00 L 95.00 374.00 L 99.00 381.00 L 99.00 383.00 L 101.00 385.00 L 101.00 387.00 L 103.00 389.00 L 106.00 396.00 L 108.00 398.00 L 110.00 403.00 L 125.00 424.00 L 127.00 425.00 L 131.00 431.00 L 140.00 440.00 L 140.00 441.00 L 141.00 441.00 L 148.00 448.00 L 149.00 448.00 L 150.00 450.00 L 156.00 454.00 L 157.00 456.00 L 162.00 459.00 L 166.00 463.00 L 175.00 468.00 L 183.00 474.00 L 185.00 474.00 L 190.00 478.00 L 192.00 478.00 L 194.00 480.00 L 196.00 480.00 L 198.00 482.00 L 200.00 482.00 L 202.00 484.00 L 207.00 485.00 L 214.00 489.00 L 217.00 489.00 L 220.00 491.00 L 223.00 491.00 L 226.00 493.00 L 229.00 493.00 L 232.00 495.00 L 237.00 495.00 L 240.00 497.00 L 245.00 497.00 L 250.00 499.00 L 262.00 500.00 L 263.00 501.00 L 270.00 501.00 L 271.00 502.00 L 309.00 502.00 L 310.00 501.00 L 323.00 500.00 L 324.00 499.00 L 329.00 499.00 L 334.00 497.00 L 339.00 497.00 L 343.00 495.00 L 347.00 495.00 L 349.00 493.00 L 353.00 493.00 L 356.00 491.00 L 359.00 491.00 L 367.00 487.00 L 370.00 487.00 L 375.00 484.00 L 377.00 484.00 L 379.00 482.00 L 381.00 482.00 L 383.00 480.00 L 385.00 480.00 L 387.00 478.00 L 389.00 478.00 L 391.00 476.00 L 401.00 471.00 L 422.00 456.00 L 440.00 439.00 L 441.00 439.00 L 446.00 432.00 L 450.00 429.00 L 450.00 428.00 L 457.00 420.00 L 459.00 416.00 L 461.00 415.00 L 462.00 412.00 L 465.00 409.00 L 470.00 400.00 L 472.00 398.00 L 472.00 396.00 L 476.00 391.00 L 480.00 383.00 L 480.00 381.00 L 485.00 372.00 L 485.00 369.00 L 487.00 367.00 L 487.00 364.00 L 491.00 356.00 L 491.00 352.00 L 493.00 349.00 L 493.00 345.00 L 495.00 341.00 L 495.00 336.00 L 496.00 335.00 L 497.00 326.00 L 498.00 325.00 L 498.00 317.00 L 499.00 316.00 L 499.00 312.00 L 500.00 311.00 L 500.00 272.00 L 499.00 271.00 L 499.00 266.00 L 498.00 265.00 L 498.00 257.00 L 497.00 256.00 L 495.00 242.00 L 491.00 231.00 L 491.00 227.00 L 489.00 225.00 L 489.00 222.00 L 487.00 219.00 L 487.00 216.00 L 485.00 214.00 L 485.00 211.00 L 480.00 202.00 L 480.00 200.00 L 478.00 196.00 L 476.00 194.00 L 476.00 192.00 L 474.00 190.00 L 474.00 188.00 L 468.00 180.00 L 463.00 171.00 L 459.00 167.00 L 457.00 163.00 L 450.00 155.00 L 450.00 154.00 L 449.00 154.00 L 448.00 152.00 L 439.00 143.00 L 439.00 142.00 L 438.00 142.00 L 429.00 133.00 L 428.00 133.00 L 427.00 131.00 L 417.00 124.00 L 413.00 120.00 L 404.00 114.00 L 401.00 113.00 L 396.00 109.00 L 387.00 105.00 L 385.00 103.00 L 383.00 103.00 L 381.00 101.00 L 379.00 101.00 L 374.00 98.00 L 367.00 96.00 L 365.00 94.00 L 362.00 94.00 L 359.00 92.00 L 356.00 92.00 L 354.00 90.00 L 350.00 90.00 L 346.00 88.00 L 342.00 88.00 L 339.00 86.00 L 335.00 86.00 L 334.00 85.00 L 330.00 85.00 L 329.00 84.00 L 316.00 83.00 L 315.00 82.00 L 308.00 82.00 L 307.00 81.00 Z
M 294.00 303.00 L 299.00 302.00 L 300.00 301.00 L 305.00 301.00 L 306.00 302.00 L 326.00 303.00 L 327.00 304.00 L 350.00 304.00 L 351.00 305.00 L 351.00 399.00 L 350.00 400.00 L 322.00 400.00 L 321.00 399.00 L 316.00 399.00 L 315.00 398.00 L 296.00 398.00 L 295.00 399.00 L 293.00 398.00 L 293.00 304.00 Z
M 304.00 378.00 L 304.00 384.00 L 305.00 385.00 L 312.00 385.00 L 313.00 386.00 L 319.00 386.00 L 320.00 387.00 L 338.00 387.00 L 340.00 386.00 L 340.00 380.00 L 339.00 379.00 L 321.00 379.00 L 320.00 378.00 L 311.00 378.00 L 310.00 377.00 L 306.00 377.00 Z
M 304.00 357.00 L 304.00 363.00 L 305.00 364.00 L 313.00 364.00 L 318.00 366.00 L 339.00 366.00 L 339.00 364.00 L 340.00 363.00 L 340.00 359.00 L 338.00 358.00 L 327.00 358.00 L 326.00 357.00 L 306.00 357.00 L 305.00 356.00 Z
M 304.00 337.00 L 304.00 341.00 L 305.00 343.00 L 308.00 343.00 L 309.00 344.00 L 339.00 345.00 L 340.00 343.00 L 340.00 339.00 L 339.00 337.00 L 322.00 337.00 L 321.00 336.00 L 307.00 336.00 L 306.00 335.00 L 305.00 335.00 Z
M 304.00 315.00 L 304.00 320.00 L 306.00 322.00 L 309.00 322.00 L 310.00 323.00 L 328.00 323.00 L 329.00 324.00 L 338.00 324.00 L 340.00 322.00 L 340.00 317.00 L 339.00 316.00 L 317.00 316.00 L 316.00 315.00 L 312.00 315.00 L 311.00 314.00 L 305.00 314.00 Z
M 279.00 302.00 L 281.00 304.00 L 281.00 393.00 L 282.00 394.00 L 282.00 397.00 L 281.00 398.00 L 259.00 398.00 L 254.00 400.00 L 225.00 400.00 L 224.00 399.00 L 224.00 306.00 L 226.00 304.00 L 231.00 304.00 L 232.00 305.00 L 234.00 305.00 L 235.00 304.00 L 260.00 303.00 L 261.00 302.00 L 268.00 302.00 L 269.00 301.00 Z
M 270.00 378.00 L 268.00 377.00 L 262.00 377.00 L 261.00 378.00 L 253.00 378.00 L 252.00 379.00 L 236.00 379.00 L 235.00 380.00 L 235.00 386.00 L 236.00 387.00 L 252.00 387.00 L 253.00 386.00 L 269.00 385.00 L 270.00 384.00 Z
M 270.00 357.00 L 269.00 356.00 L 267.00 356.00 L 266.00 357.00 L 243.00 357.00 L 242.00 358.00 L 236.00 358.00 L 235.00 359.00 L 235.00 365.00 L 236.00 366.00 L 253.00 366.00 L 254.00 365.00 L 259.00 365.00 L 260.00 364.00 L 269.00 364.00 L 270.00 363.00 Z
M 270.00 336.00 L 268.00 335.00 L 263.00 335.00 L 262.00 336.00 L 253.00 336.00 L 252.00 337.00 L 247.00 337.00 L 246.00 336.00 L 244.00 336.00 L 243.00 337.00 L 236.00 337.00 L 235.00 338.00 L 235.00 344.00 L 236.00 345.00 L 241.00 345.00 L 242.00 344.00 L 263.00 344.00 L 264.00 343.00 L 270.00 343.00 Z
M 270.00 315.00 L 269.00 314.00 L 262.00 314.00 L 261.00 315.00 L 257.00 315.00 L 256.00 316.00 L 236.00 316.00 L 235.00 317.00 L 235.00 323.00 L 236.00 324.00 L 238.00 324.00 L 239.00 323.00 L 264.00 323.00 L 265.00 322.00 L 269.00 322.00 L 270.00 321.00 Z
M 406.00 273.00 L 407.00 274.00 L 407.00 347.00 L 405.00 351.00 L 405.00 356.00 L 403.00 359.00 L 403.00 363.00 L 400.00 368.00 L 400.00 371.00 L 396.00 377.00 L 396.00 379.00 L 394.00 381.00 L 389.00 391.00 L 385.00 397.00 L 383.00 398.00 L 381.00 402.00 L 376.00 407.00 L 376.00 408.00 L 358.00 426.00 L 357.00 426.00 L 356.00 428.00 L 355.00 428.00 L 354.00 430.00 L 322.00 454.00 L 317.00 456.00 L 309.00 462.00 L 305.00 463.00 L 300.00 467.00 L 298.00 467.00 L 296.00 469.00 L 294.00 469.00 L 293.00 468.00 L 293.00 418.00 L 296.00 414.00 L 299.00 412.00 L 306.00 412.00 L 307.00 413.00 L 321.00 413.00 L 322.00 414.00 L 325.00 413.00 L 326.00 414.00 L 335.00 414.00 L 336.00 415.00 L 357.00 415.00 L 358.00 414.00 L 364.00 414.00 L 365.00 412.00 L 365.00 406.00 L 364.00 405.00 L 365.00 403.00 L 365.00 401.00 L 364.00 400.00 L 365.00 397.00 L 366.00 396.00 L 376.00 396.00 L 377.00 395.00 L 377.00 381.00 L 375.00 379.00 L 366.00 379.00 L 364.00 375.00 L 364.00 372.00 L 365.00 371.00 L 364.00 367.00 L 366.00 364.00 L 376.00 364.00 L 377.00 363.00 L 377.00 348.00 L 374.00 348.00 L 373.00 347.00 L 372.00 348.00 L 367.00 348.00 L 364.00 345.00 L 365.00 343.00 L 364.00 342.00 L 364.00 338.00 L 365.00 337.00 L 364.00 330.00 L 367.00 327.00 L 374.00 328.00 L 377.00 326.00 L 377.00 313.00 L 376.00 311.00 L 367.00 311.00 L 365.00 309.00 L 365.00 296.00 L 364.00 295.00 L 365.00 292.00 L 363.00 290.00 L 327.00 290.00 L 326.00 289.00 L 321.00 289.00 L 320.00 288.00 L 294.00 288.00 L 293.00 287.00 L 293.00 274.00 L 294.00 273.00 Z
M 169.00 273.00 L 280.00 273.00 L 281.00 274.00 L 281.00 280.00 L 282.00 281.00 L 282.00 283.00 L 280.00 288.00 L 255.00 288.00 L 250.00 290.00 L 211.00 290.00 L 209.00 293.00 L 209.00 296.00 L 210.00 297.00 L 210.00 299.00 L 209.00 300.00 L 210.00 301.00 L 210.00 305.00 L 208.00 308.00 L 199.00 308.00 L 197.00 309.00 L 197.00 322.00 L 199.00 325.00 L 208.00 325.00 L 210.00 327.00 L 210.00 341.00 L 208.00 344.00 L 198.00 344.00 L 198.00 349.00 L 197.00 350.00 L 197.00 359.00 L 199.00 361.00 L 208.00 361.00 L 210.00 365.00 L 210.00 372.00 L 208.00 376.00 L 198.00 376.00 L 197.00 378.00 L 197.00 391.00 L 199.00 393.00 L 208.00 393.00 L 210.00 396.00 L 210.00 401.00 L 209.00 402.00 L 210.00 405.00 L 209.00 407.00 L 210.00 408.00 L 210.00 413.00 L 211.00 414.00 L 216.00 414.00 L 217.00 415.00 L 238.00 415.00 L 239.00 414.00 L 266.00 413.00 L 267.00 412.00 L 275.00 412.00 L 277.00 413.00 L 280.00 416.00 L 282.00 420.00 L 282.00 422.00 L 281.00 423.00 L 282.00 425.00 L 282.00 427.00 L 281.00 428.00 L 281.00 467.00 L 280.00 468.00 L 275.00 467.00 L 273.00 465.00 L 263.00 460.00 L 258.00 456.00 L 256.00 456.00 L 244.00 447.00 L 240.00 445.00 L 228.00 435.00 L 227.00 435.00 L 222.00 430.00 L 221.00 430.00 L 220.00 428.00 L 218.00 427.00 L 205.00 414.00 L 205.00 413.00 L 201.00 410.00 L 201.00 409.00 L 192.00 399.00 L 186.00 390.00 L 185.00 387.00 L 181.00 382.00 L 181.00 380.00 L 179.00 378.00 L 177.00 374.00 L 177.00 372.00 L 175.00 369.00 L 175.00 367.00 L 173.00 364.00 L 172.00 358.00 L 170.00 354.00 L 170.00 349.00 L 168.00 346.00 L 168.00 274.00 Z
M 168.00 165.00 L 170.00 163.00 L 186.00 163.00 L 187.00 164.00 L 189.00 163.00 L 381.00 163.00 L 382.00 164.00 L 384.00 163.00 L 405.00 163.00 L 407.00 165.00 L 407.00 172.00 L 408.00 173.00 L 407.00 175.00 L 407.00 258.00 L 406.00 259.00 L 169.00 259.00 L 168.00 258.00 Z
M 189.00 170.00 L 189.00 224.00 L 193.00 232.00 L 195.00 233.00 L 198.00 237.00 L 210.00 245.00 L 213.00 246.00 L 218.00 250.00 L 223.00 252.00 L 225.00 254.00 L 230.00 255.00 L 241.00 249.00 L 243.00 247.00 L 245.00 247.00 L 260.00 237.00 L 265.00 232.00 L 267.00 229.00 L 268.00 223.00 L 269.00 222.00 L 269.00 171.00 L 268.00 169.00 L 190.00 169.00 Z
M 203.00 209.00 L 208.00 207.00 L 253.00 207.00 L 254.00 208.00 L 254.00 223.00 L 242.00 232.00 L 237.00 234.00 L 230.00 239.00 L 228.00 239.00 L 226.00 237.00 L 210.00 228.00 L 203.00 221.00 Z
M 203.00 184.00 L 204.00 183.00 L 253.00 183.00 L 254.00 184.00 L 254.00 192.00 L 253.00 193.00 L 205.00 193.00 L 203.00 191.00 Z
M 310.00 169.00 L 310.00 224.00 L 312.00 227.00 L 312.00 229.00 L 319.00 237.00 L 327.00 241.00 L 343.00 252.00 L 350.00 255.00 L 360.00 250.00 L 370.00 243.00 L 372.00 243.00 L 384.00 234.00 L 387.00 230.00 L 390.00 222.00 L 390.00 171.00 L 388.00 168.00 L 313.00 168.00 L 312.00 169.00 Z
M 348.00 202.00 L 351.00 202.00 L 363.00 211.00 L 365.00 211.00 L 366.00 213.00 L 375.00 219.00 L 375.00 222.00 L 369.00 228.00 L 367.00 228.00 L 352.00 238.00 L 348.00 238.00 L 344.00 236.00 L 333.00 228.00 L 331.00 228.00 L 330.00 226.00 L 329.00 226.00 L 325.00 222.00 L 325.00 220.00 L 330.00 215.00 L 334.00 213.00 Z
M 351.00 184.00 L 352.00 183.00 L 374.00 183.00 L 375.00 184.00 L 375.00 199.00 L 373.00 200.00 L 368.00 196.00 L 365.00 195.00 L 362.00 192.00 L 353.00 187.00 Z
M 324.00 199.00 L 324.00 197.00 L 325.00 196.00 L 324.00 194.00 L 324.00 185.00 L 326.00 183.00 L 346.00 183.00 L 347.00 184.00 L 347.00 185.00 L 343.00 189.00 L 340.00 190.00 L 333.00 196.00 L 329.00 198.00 L 328.00 200.00 L 325.00 200.00 Z
M 151.00 152.00 L 153.00 153.00 L 153.00 340.00 L 154.00 341.00 L 154.00 345.00 L 155.00 346.00 L 155.00 354.00 L 157.00 356.00 L 157.00 361.00 L 159.00 364.00 L 159.00 368.00 L 161.00 370.00 L 161.00 373.00 L 164.00 378.00 L 164.00 380.00 L 166.00 384.00 L 168.00 386.00 L 168.00 388.00 L 170.00 390.00 L 170.00 392.00 L 176.00 400.00 L 177.00 403.00 L 183.00 410.00 L 185.00 414.00 L 192.00 421.00 L 192.00 422.00 L 195.00 424.00 L 196.00 426.00 L 197.00 426.00 L 198.00 428.00 L 207.00 436.00 L 207.00 437.00 L 208.00 437.00 L 216.00 445.00 L 221.00 448.00 L 225.00 452.00 L 229.00 454.00 L 233.00 458.00 L 242.00 463.00 L 243.00 465.00 L 245.00 465.00 L 253.00 471.00 L 263.00 476.00 L 265.00 478.00 L 267.00 478.00 L 269.00 480.00 L 280.00 485.00 L 281.00 486.00 L 280.00 488.00 L 270.00 488.00 L 269.00 487.00 L 264.00 487.00 L 263.00 486.00 L 255.00 486.00 L 251.00 484.00 L 246.00 484.00 L 242.00 482.00 L 238.00 482.00 L 235.00 480.00 L 231.00 480.00 L 228.00 478.00 L 223.00 477.00 L 220.00 475.00 L 218.00 475.00 L 210.00 471.00 L 208.00 471.00 L 206.00 469.00 L 204.00 469.00 L 202.00 467.00 L 200.00 467.00 L 198.00 465.00 L 196.00 465.00 L 186.00 458.00 L 184.00 458.00 L 178.00 454.00 L 174.00 450.00 L 159.00 439.00 L 158.00 437.00 L 156.00 436.00 L 136.00 415.00 L 134.00 411.00 L 125.00 400.00 L 125.00 398.00 L 123.00 397.00 L 116.00 383.00 L 114.00 381.00 L 114.00 379.00 L 112.00 377.00 L 110.00 373.00 L 110.00 371.00 L 108.00 369.00 L 108.00 366.00 L 106.00 364.00 L 106.00 361.00 L 104.00 358.00 L 103.00 352.00 L 101.00 349.00 L 101.00 346.00 L 99.00 343.00 L 99.00 338.00 L 97.00 335.00 L 97.00 329.00 L 95.00 325.00 L 95.00 317.00 L 93.00 313.00 L 93.00 271.00 L 94.00 270.00 L 94.00 266.00 L 95.00 265.00 L 95.00 257.00 L 97.00 254.00 L 97.00 248.00 L 99.00 245.00 L 99.00 240.00 L 101.00 237.00 L 101.00 234.00 L 102.00 233.00 L 106.00 219.00 L 108.00 217.00 L 108.00 214.00 L 110.00 212.00 L 110.00 210.00 L 112.00 208.00 L 112.00 206.00 L 114.00 204.00 L 115.00 200.00 L 123.00 188.00 L 123.00 186.00 L 131.00 176.00 L 132.00 173.00 L 134.00 172.00 L 136.00 168.00 Z
M 269.00 95.00 L 310.00 95.00 L 315.00 97.00 L 324.00 97.00 L 328.00 99.00 L 334.00 99.00 L 337.00 101.00 L 342.00 101.00 L 344.00 103.00 L 354.00 105.00 L 364.00 110.00 L 367.00 110.00 L 369.00 112.00 L 371.00 112.00 L 377.00 116.00 L 380.00 116.00 L 381.00 118.00 L 385.00 119.00 L 387.00 121.00 L 390.00 122.00 L 392.00 124.00 L 401.00 129.00 L 419.00 144.00 L 420.00 144.00 L 421.00 146.00 L 422.00 146.00 L 437.00 161.00 L 441.00 167.00 L 450.00 177.00 L 450.00 179.00 L 452.00 180.00 L 456.00 186.00 L 461.00 196.00 L 463.00 198.00 L 463.00 200.00 L 467.00 205.00 L 467.00 208.00 L 469.00 210.00 L 469.00 212.00 L 472.00 217.00 L 472.00 219.00 L 474.00 221.00 L 474.00 224.00 L 476.00 227.00 L 476.00 230.00 L 478.00 233.00 L 478.00 236.00 L 480.00 240.00 L 480.00 244.00 L 482.00 247.00 L 482.00 253.00 L 484.00 258.00 L 485.00 273.00 L 486.00 274.00 L 486.00 291.00 L 487.00 292.00 L 487.00 294.00 L 486.00 295.00 L 486.00 309.00 L 485.00 310.00 L 484.00 326.00 L 483.00 327.00 L 483.00 330.00 L 481.00 335.00 L 480.00 343.00 L 478.00 346.00 L 478.00 350.00 L 476.00 353.00 L 476.00 356.00 L 474.00 359.00 L 472.00 366.00 L 469.00 371.00 L 469.00 373.00 L 467.00 375.00 L 467.00 377.00 L 465.00 381.00 L 463.00 383.00 L 463.00 385.00 L 455.00 397.00 L 455.00 399.00 L 443.00 415.00 L 420.00 439.00 L 405.00 450.00 L 401.00 454.00 L 398.00 455.00 L 395.00 458.00 L 393.00 458.00 L 383.00 465.00 L 381.00 465.00 L 379.00 467.00 L 377.00 467.00 L 376.00 469.00 L 369.00 471.00 L 367.00 473.00 L 362.00 474.00 L 359.00 476.00 L 351.00 478.00 L 348.00 480.00 L 344.00 480.00 L 341.00 482.00 L 337.00 482.00 L 335.00 484.00 L 328.00 484.00 L 324.00 486.00 L 316.00 486.00 L 315.00 487.00 L 311.00 487.00 L 310.00 488.00 L 295.00 488.00 L 294.00 486.00 L 306.00 480.00 L 308.00 478.00 L 310.00 478.00 L 312.00 476.00 L 325.00 469.00 L 333.00 463.00 L 336.00 462.00 L 342.00 458.00 L 346.00 454.00 L 350.00 452.00 L 365.00 439.00 L 366.00 439.00 L 368.00 436.00 L 370.00 435.00 L 383.00 422.00 L 384.00 420.00 L 385.00 420.00 L 385.00 419.00 L 391.00 413.00 L 403.00 396.00 L 405.00 391.00 L 407.00 389.00 L 409.00 385.00 L 409.00 383.00 L 411.00 381.00 L 412.00 377.00 L 414.00 374.00 L 414.00 371.00 L 416.00 369.00 L 416.00 365.00 L 418.00 363.00 L 418.00 358.00 L 420.00 355.00 L 420.00 346.00 L 421.00 345.00 L 421.00 340.00 L 422.00 339.00 L 422.00 151.00 L 421.00 150.00 L 157.00 150.00 L 156.00 149.00 L 156.00 147.00 L 159.00 144.00 L 160.00 144.00 L 166.00 138.00 L 174.00 133.00 L 178.00 129.00 L 181.00 128.00 L 184.00 125.00 L 189.00 123.00 L 196.00 118.00 L 198.00 118.00 L 200.00 116.00 L 202.00 116.00 L 204.00 114.00 L 206.00 114.00 L 208.00 112.00 L 210.00 112.00 L 215.00 109.00 L 220.00 108.00 L 223.00 106.00 L 228.00 105.00 L 231.00 103.00 L 235.00 103.00 L 238.00 101.00 L 242.00 101.00 L 245.00 99.00 L 251.00 99.00 L 255.00 97.00 L 263.00 97.00 L 264.00 96.00 L 268.00 96.00 Z
M 144.00 81.00 L 141.00 81.00 L 137.00 85.00 L 137.00 86.00 L 148.00 99.00 L 149.00 101.00 L 148.00 103.00 L 145.00 101.00 L 143.00 101.00 L 141.00 99.00 L 139.00 99.00 L 134.00 96.00 L 132.00 96.00 L 130.00 94.00 L 127.00 94.00 L 126.00 93.00 L 120.00 98.00 L 120.00 101.00 L 129.00 111.00 L 138.00 124.00 L 140.00 125.00 L 139.00 127.00 L 136.00 127.00 L 134.00 125.00 L 132.00 125.00 L 131.00 124.00 L 124.00 123.00 L 123.00 122.00 L 123.00 116.00 L 122.00 114.00 L 116.00 109.00 L 110.00 109.00 L 108.00 110.00 L 104.00 114.00 L 103.00 114.00 L 103.00 115.00 L 101.00 116.00 L 101.00 117.00 L 99.00 118.00 L 96.00 122.00 L 96.00 125.00 L 97.00 125.00 L 110.00 138.00 L 111.00 138.00 L 112.00 140.00 L 113.00 140.00 L 114.00 142.00 L 118.00 145.00 L 118.00 146.00 L 121.00 148.00 L 122.00 148.00 L 126.00 144.00 L 126.00 142.00 L 125.00 140.00 L 118.00 134.00 L 118.00 131.00 L 120.00 129.00 L 124.00 131.00 L 126.00 131.00 L 129.00 133.00 L 135.00 134.00 L 138.00 132.00 L 141.00 127.00 L 144.00 126.00 L 147.00 123.00 L 146.00 120.00 L 136.00 108.00 L 137.00 106.00 L 140.00 106.00 L 147.00 110.00 L 149.00 110.00 L 151.00 112.00 L 153.00 112.00 L 155.00 114.00 L 159.00 114.00 L 162.00 112.00 L 165.00 108.00 L 156.00 96.00 L 151.00 91.00 L 146.00 83.00 L 144.00 82.00 Z
M 109.00 118.00 L 114.00 118.00 L 116.00 120.00 L 115.00 124.00 L 112.00 127.00 L 111.00 127.00 L 106.00 122.00 Z
M 169.00 64.00 L 162.00 69.00 L 160.00 69.00 L 158.00 71.00 L 153.00 73.00 L 151.00 76.00 L 157.00 85.00 L 157.00 87.00 L 163.00 95.00 L 166.00 102.00 L 169.00 106.00 L 171.00 106.00 L 175.00 104.00 L 178.00 101.00 L 180.00 101.00 L 182.00 99.00 L 187.00 97.00 L 188.00 94.00 L 186.00 91.00 L 184.00 90.00 L 175.00 96.00 L 173.00 96.00 L 171.00 94.00 L 169.00 89.00 L 173.00 86.00 L 178.00 84.00 L 179.00 83.00 L 179.00 81.00 L 177.00 78.00 L 174.00 78.00 L 166.00 83.00 L 162.00 79.00 L 162.00 77.00 L 165.00 74.00 L 168.00 73.00 L 170.00 71.00 L 172.00 71.00 L 172.00 67.00 Z
M 394.00 57.00 L 390.00 62.00 L 390.00 64.00 L 387.00 70.00 L 385.00 72.00 L 385.00 74.00 L 383.00 76.00 L 383.00 78.00 L 381.00 81.00 L 381.00 88.00 L 387.00 95.00 L 397.00 99.00 L 401.00 99.00 L 403.00 97.00 L 405.00 97.00 L 409.00 93.00 L 414.00 82.00 L 416.00 80.00 L 416.00 78.00 L 418.00 76.00 L 418.00 74.00 L 420.00 70.00 L 418.00 68.00 L 413.00 67.00 L 409.00 73.00 L 409.00 75.00 L 407.00 77.00 L 407.00 79.00 L 405.00 81.00 L 405.00 83.00 L 401.00 89.00 L 397.00 91.00 L 392.00 90.00 L 390.00 88.00 L 390.00 80.00 L 392.00 79.00 L 392.00 77.00 L 394.00 75.00 L 394.00 72.00 L 400.00 63.00 L 400.00 59.00 L 396.00 57.00 Z
M 210.00 47.00 L 209.00 48.00 L 204.00 49.00 L 203.00 50.00 L 203.00 52.00 L 204.00 53.00 L 204.00 56.00 L 205.00 57.00 L 207.00 65.00 L 209.00 68.00 L 209.00 72.00 L 211.00 75.00 L 211.00 78.00 L 205.00 81.00 L 203.00 81.00 L 198.00 84.00 L 196.00 83.00 L 196.00 81.00 L 194.00 79.00 L 194.00 76.00 L 192.00 74.00 L 192.00 72.00 L 190.00 69.00 L 190.00 67.00 L 188.00 65.00 L 188.00 63.00 L 186.00 59.00 L 184.00 57.00 L 178.00 60.00 L 179.00 65.00 L 181.00 67.00 L 181.00 70.00 L 185.00 76.00 L 187.00 83.00 L 189.00 85.00 L 189.00 88.00 L 192.00 93.00 L 195.00 93.00 L 204.00 88.00 L 207.00 88.00 L 209.00 86.00 L 211.00 86.00 L 212.00 84.00 L 217.00 84.00 L 220.00 82.00 L 223.00 82.00 L 226.00 80.00 L 229.00 80.00 L 234.00 78.00 L 234.00 75.00 L 232.00 72.00 L 226.00 73.00 L 224.00 75.00 L 220.00 75.00 L 218.00 73.00 L 217.00 67.00 L 216.00 66.00 L 216.00 64.00 L 213.00 57.00 L 213.00 54.00 L 211.00 51.00 Z
M 272.00 36.00 L 267.00 36.00 L 266.00 35.00 L 265.00 36.00 L 257.00 36.00 L 254.00 38.00 L 252.00 38.00 L 246.00 44.00 L 245.00 49.00 L 244.00 50.00 L 244.00 59.00 L 245.00 60.00 L 246.00 65.00 L 248.00 68.00 L 256.00 73.00 L 270.00 73.00 L 273.00 71.00 L 277.00 71.00 L 278.00 66.00 L 277.00 65.00 L 277.00 61.00 L 276.00 60.00 L 276.00 51.00 L 272.00 50.00 L 271.00 51.00 L 262.00 51.00 L 260.00 54.00 L 262.00 58.00 L 268.00 58.00 L 269.00 59.00 L 269.00 65.00 L 268.00 66.00 L 262.00 67.00 L 256.00 64.00 L 252.00 57.00 L 252.00 52.00 L 254.00 47.00 L 259.00 43.00 L 262.00 43.00 L 263.00 42.00 L 272.00 42.00 L 272.00 40.00 L 273.00 39.00 L 273.00 37.00 Z
M 282.00 36.00 L 282.00 71.00 L 289.00 71.00 L 289.00 62.00 L 290.00 61.00 L 290.00 58.00 L 292.00 56.00 L 293.00 56.00 L 297.00 61.00 L 297.00 64.00 L 299.00 67.00 L 299.00 69.00 L 301.00 71.00 L 316.00 72.00 L 317.00 71.00 L 317.00 69.00 L 321.00 65.00 L 323.00 66.00 L 328.00 66.00 L 334.00 69.00 L 334.00 74.00 L 338.00 77.00 L 345.00 77.00 L 347.00 79.00 L 349.00 79.00 L 353.00 81.00 L 356.00 81.00 L 357.00 82.00 L 370.00 82.00 L 374.00 80.00 L 379.00 74.00 L 379.00 72.00 L 381.00 69.00 L 381.00 57.00 L 379.00 54.00 L 373.00 49.00 L 371.00 49.00 L 369.00 47.00 L 366.00 47.00 L 364.00 45.00 L 361.00 45.00 L 358.00 43.00 L 355.00 45.00 L 355.00 48.00 L 353.00 51.00 L 353.00 54.00 L 351.00 57.00 L 351.00 60.00 L 349.00 63.00 L 349.00 66.00 L 347.00 69.00 L 346.00 75.00 L 344.00 76.00 L 343.00 75.00 L 343.00 71.00 L 342.00 70.00 L 342.00 67.00 L 340.00 62.00 L 340.00 58.00 L 339.00 57.00 L 338.00 48.00 L 336.00 44.00 L 336.00 40.00 L 334.00 38.00 L 326.00 38.00 L 321.00 48.00 L 314.00 58.00 L 312.00 63.00 L 308.00 66.00 L 306.00 64.00 L 306.00 61.00 L 304.00 59.00 L 304.00 57.00 L 303.00 56.00 L 303.00 53.00 L 306.00 50.00 L 308.00 46.00 L 308.00 43.00 L 306.00 41.00 L 306.00 38.00 L 303.00 36.00 L 298.00 36.00 L 294.00 34.00 L 283.00 34.00 Z
M 362.00 53.00 L 366.00 53.00 L 371.00 57.00 L 373.00 62.00 L 373.00 65.00 L 370.00 72.00 L 366.00 75.00 L 356.00 75.00 L 355.00 74.00 L 355.00 71.00 L 356.00 70.00 L 358.00 62.00 L 360.00 59.00 L 360.00 56.00 Z
M 328.00 50.00 L 329.00 50.00 L 331.00 53.00 L 331.00 59.00 L 330.00 60.00 L 326.00 60.00 L 324.00 58.00 Z
M 290.00 43.00 L 292.00 41.00 L 296.00 41.00 L 299.00 44.00 L 299.00 47.00 L 295.00 50.00 L 292.00 50.00 L 290.00 48.00 Z" fill="#b52020" fill-rule="evenodd"/>
</svg>
